<?xml version="1.0" encoding="UTF-8"?>
<svg id="_Слой_1" data-name="Слой 1" xmlns="http://www.w3.org/2000/svg" viewBox="0 0 34.08 34.08">
  <defs>
    <style>
      .cls-1 {
        fill: #fff;
      }

      .cls-2 {
        fill: #9301ad;
      }
    </style>
  </defs>
  <path class="cls-1" d="m11.59,29.95L2.88,19.94l2.56-9.55,12.62-5.46,8.48,1.71,2.89,4.27s2.46,3.46,2.1,4.18-1.05,3.75-2.88,5.86-6.47,8.39-6.47,8.39l-10.6.62Z"/>
  <g>
    <path class="cls-2" d="m18.47,17.35c.17-.46.21-.89-.42-1.02.65.08.89.59,1.31,1.02h-.89Z"/>
    <path class="cls-2" d="m19.69,18.08c.05.85-.51,1.57-1.37,1.86-.34-.28-.17-.66-.2-1-.02-.09,0-.18.01-.28.05-.49.14-.56.66-.59h.89Z"/>
    <path class="cls-2" d="m17,17.12c-.07.11-.13.23-.2.34.02.07.01.15-.04.24-.29.51-.42,1.06-.28,1.62,0,0,0,.01,0,.02.04-.11.09-.23.13-.34.01,0,.05,0,.09.03-.03-.09-.09-.14-.09-.2.08-.29.15-.57.28-.85q.24-.62.11-.86Zm0,0c-.07.11-.13.23-.2.34.02.07.01.15-.04.24-.29.51-.42,1.06-.28,1.62,0,0,0,.01,0,.02.04-.11.09-.23.13-.34.01,0,.05,0,.09.03-.03-.09-.09-.14-.09-.2.08-.29.15-.57.28-.85q.24-.62.11-.86Zm-9.94,2.17c.17-.85.35-1.68.56-2.51-.51.79-.45,1.67-.56,2.51Zm3.57-2.14c-.34-.6-.91-.85-1.51-1.09-.2-.08-.38-.02-.48.23-.09.34-.2.68-.31,1.03-.18.63-.35,1.29-.52,1.95-.08.34-.05.71-.12,1.06-.05.2-.14.38.11.6.28-.29.57-.53.82-.82.66-.77,1.29-1.56,1.94-2.34.15-.19.22-.37.08-.63Zm6.36-.03c-.07.11-.13.23-.2.34.02.07.01.15-.04.24-.29.51-.42,1.06-.28,1.62,0,0,0,.01,0,.02.04-.11.09-.23.13-.34.01,0,.05,0,.09.03-.03-.09-.09-.14-.09-.2.08-.29.15-.57.28-.85q.24-.62.11-.86Zm0,0c-.07.11-.13.23-.2.34.02.07.01.15-.04.24-.29.51-.42,1.06-.28,1.62,0,0,0,.01,0,.02.04-.11.09-.23.13-.34.01,0,.05,0,.09.03-.03-.09-.09-.14-.09-.2.08-.29.15-.57.28-.85q.24-.62.11-.86Zm-6.36.03c-.34-.6-.91-.85-1.51-1.09-.2-.08-.38-.02-.48.23-.09.34-.2.68-.31,1.03-.18.63-.35,1.29-.52,1.95-.08.34-.05.71-.12,1.06-.05.2-.14.38.11.6.28-.29.57-.53.82-.82.66-.77,1.29-1.56,1.94-2.34.15-.19.22-.37.08-.63Zm-3.57,2.14c.17-.85.35-1.68.56-2.51-.51.79-.45,1.67-.56,2.51Zm0,0c.17-.85.35-1.68.56-2.51-.51.79-.45,1.67-.56,2.51Zm3.57-2.14c-.34-.6-.91-.85-1.51-1.09-.2-.08-.38-.02-.48.23-.09.34-.2.68-.31,1.03-.18.63-.35,1.29-.52,1.95-.08.34-.05.71-.12,1.06-.05.2-.14.38.11.6.28-.29.57-.53.82-.82.66-.77,1.29-1.56,1.94-2.34.15-.19.22-.37.08-.63Zm6.36-.03c-.07.11-.13.23-.2.34.02.07.01.15-.04.24-.29.51-.42,1.06-.28,1.62,0,0,0,.01,0,.02.04-.11.09-.23.13-.34.01,0,.05,0,.09.03-.03-.09-.09-.14-.09-.2.08-.29.15-.57.28-.85q.24-.62.11-.86Zm0,0c-.07.11-.13.23-.2.34.02.07.01.15-.04.24-.29.51-.42,1.06-.28,1.62,0,0,0,.01,0,.02.04-.11.09-.23.13-.34.01,0,.05,0,.09.03-.03-.09-.09-.14-.09-.2.08-.29.15-.57.28-.85q.24-.62.11-.86Zm-6.36.03c-.34-.6-.91-.85-1.51-1.09-.2-.08-.38-.02-.48.23-.09.34-.2.68-.31,1.03-.18.63-.35,1.29-.52,1.95-.08.34-.05.71-.12,1.06-.05.2-.14.38.11.6.28-.29.57-.53.82-.82.66-.77,1.29-1.56,1.94-2.34.15-.19.22-.37.08-.63Zm-3.57,2.14c.17-.85.35-1.68.56-2.51-.51.79-.45,1.67-.56,2.51Zm0,0c.17-.85.35-1.68.56-2.51-.51.79-.45,1.67-.56,2.51Zm3.57-2.14c-.34-.6-.91-.85-1.51-1.09-.2-.08-.38-.02-.48.23-.09.34-.2.68-.31,1.03-.18.63-.35,1.29-.52,1.95-.08.34-.05.71-.12,1.06-.05.2-.14.38.11.6.28-.29.57-.53.82-.82.66-.77,1.29-1.56,1.94-2.34.15-.19.22-.37.08-.63Zm6.36-.03c-.07.11-.13.23-.2.34.02.07.01.15-.04.24-.29.51-.42,1.06-.28,1.62,0,0,0,.01,0,.02.04-.11.09-.23.13-.34.01,0,.05,0,.09.03-.03-.09-.09-.14-.09-.2.08-.29.15-.57.28-.85q.24-.62.11-.86Zm0,0c-.07.11-.13.23-.2.34.02.07.01.15-.04.24-.29.51-.42,1.06-.28,1.62,0,0,0,.01,0,.02.04-.11.09-.23.13-.34.01,0,.05,0,.09.03-.03-.09-.09-.14-.09-.2.08-.29.15-.57.28-.85q.24-.62.11-.86Zm-6.36.03c-.34-.6-.91-.85-1.51-1.09-.2-.08-.38-.02-.48.23-.09.34-.2.68-.31,1.03-.18.63-.35,1.29-.52,1.95-.08.34-.05.71-.12,1.06-.05.2-.14.38.11.6.28-.29.57-.53.82-.82.66-.77,1.29-1.56,1.94-2.34.15-.19.22-.37.08-.63Zm-3.57,2.14c.17-.85.35-1.68.56-2.51-.51.79-.45,1.67-.56,2.51Zm0,0c.17-.85.35-1.68.56-2.51-.51.79-.45,1.67-.56,2.51Zm3.57-2.14c-.34-.6-.91-.85-1.51-1.09-.2-.08-.38-.02-.48.23-.09.34-.2.68-.31,1.03-.18.63-.35,1.29-.52,1.95-.08.34-.05.71-.12,1.06-.05.2-.14.38.11.6.28-.29.57-.53.82-.82.66-.77,1.29-1.56,1.94-2.34.15-.19.22-.37.08-.63Zm6.36-.03c-.07.11-.13.23-.2.34.02.07.01.15-.04.24-.29.51-.42,1.06-.28,1.62,0,0,0,.01,0,.02.04-.11.09-.23.13-.34.01,0,.05,0,.09.03-.03-.09-.09-.14-.09-.2.08-.29.15-.57.28-.85q.24-.62.11-.86Zm0,0c-.07.11-.13.23-.2.34.02.07.01.15-.04.24-.29.51-.42,1.06-.28,1.62,0,0,0,.01,0,.02.04-.11.09-.23.13-.34.01,0,.05,0,.09.03-.03-.09-.09-.14-.09-.2.08-.29.15-.57.28-.85q.24-.62.11-.86Zm-6.36.03c-.34-.6-.91-.85-1.51-1.09-.2-.08-.38-.02-.48.23-.09.34-.2.68-.31,1.03-.18.63-.35,1.29-.52,1.95-.08.34-.05.71-.12,1.06-.05.2-.14.38.11.6.28-.29.57-.53.82-.82.66-.77,1.29-1.56,1.94-2.34.15-.19.22-.37.08-.63Zm-3.57,2.14c.17-.85.35-1.68.56-2.51-.51.79-.45,1.67-.56,2.51Zm0,0c.17-.85.35-1.68.56-2.51-.51.79-.45,1.67-.56,2.51Zm3.57-2.14c-.34-.6-.91-.85-1.51-1.09-.2-.08-.38-.02-.48.23-.09.34-.2.68-.31,1.03-.18.63-.35,1.29-.52,1.95-.08.34-.05.71-.12,1.06-.05.2-.14.38.11.6.28-.29.57-.53.82-.82.66-.77,1.29-1.56,1.94-2.34.15-.19.22-.37.08-.63Zm6.36-.03c-.07.11-.13.23-.2.34.02.07.01.15-.04.24-.29.51-.42,1.06-.28,1.62,0,0,0,.01,0,.02.04-.11.09-.23.13-.34.01,0,.05,0,.09.03-.03-.09-.09-.14-.09-.2.08-.29.15-.57.28-.85q.24-.62.11-.86Zm0,0c-.07.11-.13.23-.2.34.02.07.01.15-.04.24-.29.51-.42,1.06-.28,1.62,0,0,0,.01,0,.02.04-.11.09-.23.13-.34.01,0,.05,0,.09.03-.03-.09-.09-.14-.09-.2.08-.29.15-.57.28-.85q.24-.62.11-.86Zm-6.36.03c-.34-.6-.91-.85-1.51-1.09-.2-.08-.38-.02-.48.23-.09.34-.2.68-.31,1.03-.18.63-.35,1.29-.52,1.95-.08.34-.05.71-.12,1.06-.05.2-.14.38.11.6.28-.29.57-.53.82-.82.66-.77,1.29-1.56,1.94-2.34.15-.19.22-.37.08-.63Zm-3.02-.37c-.51.79-.45,1.67-.56,2.51.17-.85.35-1.68.56-2.51Zm9.38.34c-.07.11-.13.23-.2.34.02.07.01.15-.04.24-.29.51-.42,1.06-.28,1.62,0,0,0,.01,0,.02.04-.11.09-.23.13-.34.01,0,.05,0,.09.03-.03-.09-.09-.14-.09-.2.08-.29.15-.57.28-.85q.24-.62.11-.86Zm-7.87-1.06c-.2-.08-.38-.02-.48.23-.09.34-.2.68-.31,1.03-.18.63-.35,1.29-.52,1.95-.08.34-.05.71-.12,1.06-.05.2-.14.38.11.6.28-.29.57-.53.82-.82.66-.77,1.29-1.56,1.94-2.34.15-.19.22-.37.08-.63-.34-.6-.91-.85-1.51-1.09Zm-1.51.72c-.51.79-.45,1.67-.56,2.51.17-.85.35-1.68.56-2.51Zm-.56,2.51c.17-.85.35-1.68.56-2.51-.51.79-.45,1.67-.56,2.51Zm3.57-2.14c-.34-.6-.91-.85-1.51-1.09-.2-.08-.38-.02-.48.23-.09.34-.2.68-.31,1.03-.18.63-.35,1.29-.52,1.95-.08.34-.05.71-.12,1.06-.05.2-.14.38.11.6.28-.29.57-.53.82-.82.66-.77,1.29-1.56,1.94-2.34.15-.19.22-.37.08-.63Zm6.36-.03c-.07.11-.13.23-.2.34.02.07.01.15-.04.24-.29.51-.42,1.06-.28,1.62,0,0,0,.01,0,.02.04-.11.09-.23.13-.34.01,0,.05,0,.09.03-.03-.09-.09-.14-.09-.2.08-.29.15-.57.28-.85q.24-.62.11-.86Zm0,0c-.07.11-.13.23-.2.34.02.07.01.15-.04.24-.29.51-.42,1.06-.28,1.62,0,0,0,.01,0,.02.04-.11.09-.23.13-.34.01,0,.05,0,.09.03-.03-.09-.09-.14-.09-.2.08-.29.15-.57.28-.85q.24-.62.11-.86Zm-6.36.03c-.34-.6-.91-.85-1.51-1.09-.2-.08-.38-.02-.48.23-.09.34-.2.68-.31,1.03-.18.63-.35,1.29-.52,1.95-.08.34-.05.71-.12,1.06-.05.2-.14.38.11.6.28-.29.57-.53.82-.82.66-.77,1.29-1.56,1.94-2.34.15-.19.22-.37.08-.63Zm-3.57,2.14c.17-.85.35-1.68.56-2.51-.51.79-.45,1.67-.56,2.51Zm0,0c.17-.85.35-1.68.56-2.51-.51.79-.45,1.67-.56,2.51Zm3.57-2.14c-.34-.6-.91-.85-1.51-1.09-.2-.08-.38-.02-.48.23-.09.34-.2.68-.31,1.03-.18.63-.35,1.29-.52,1.95-.08.34-.05.71-.12,1.06-.05.2-.14.38.11.6.28-.29.57-.53.82-.82.66-.77,1.29-1.56,1.94-2.34.15-.19.22-.37.08-.63Zm6.36-.03c-.07.11-.13.23-.2.34.02.07.01.15-.04.24-.29.51-.42,1.06-.28,1.62,0,0,0,.01,0,.02.04-.11.09-.23.13-.34.01,0,.05,0,.09.03-.03-.09-.09-.14-.09-.2.08-.29.15-.57.28-.85q.24-.62.11-.86Zm0,0c-.07.11-.13.23-.2.34.02.07.01.15-.04.24-.29.51-.42,1.06-.28,1.62,0,0,0,.01,0,.02.04-.11.09-.23.13-.34.01,0,.05,0,.09.03-.03-.09-.09-.14-.09-.2.08-.29.15-.57.28-.85q.24-.62.11-.86Zm-6.36.03c-.34-.6-.91-.85-1.51-1.09-.2-.08-.38-.02-.48.23-.09.34-.2.68-.31,1.03-.18.63-.35,1.29-.52,1.95-.08.34-.05.71-.12,1.06-.05.2-.14.38.11.6.28-.29.57-.53.82-.82.66-.77,1.29-1.56,1.94-2.34.15-.19.22-.37.08-.63Zm-3.57,2.14c.17-.85.35-1.68.56-2.51-.51.79-.45,1.67-.56,2.51Zm0,0c.17-.85.35-1.68.56-2.51-.51.79-.45,1.67-.56,2.51Zm3.57-2.14c-.34-.6-.91-.85-1.51-1.09-.2-.08-.38-.02-.48.23-.09.34-.2.68-.31,1.03-.18.63-.35,1.29-.52,1.95-.08.34-.05.71-.12,1.06-.05.2-.14.38.11.6.28-.29.57-.53.82-.82.66-.77,1.29-1.56,1.94-2.34.15-.19.22-.37.08-.63Zm6.36-.03c-.07.11-.13.23-.2.34.02.07.01.15-.04.24-.29.51-.42,1.06-.28,1.62,0,0,0,.01,0,.02.04-.11.09-.23.13-.34.01,0,.05,0,.09.03-.03-.09-.09-.14-.09-.2.08-.29.15-.57.28-.85q.24-.62.11-.86Zm0,0c-.07.11-.13.23-.2.34.02.07.01.15-.04.24-.29.51-.42,1.06-.28,1.62,0,0,0,.01,0,.02.04-.11.09-.23.13-.34.01,0,.05,0,.09.03-.03-.09-.09-.14-.09-.2.08-.29.15-.57.28-.85q.24-.62.11-.86Zm-6.36.03c-.34-.6-.91-.85-1.51-1.09-.2-.08-.38-.02-.48.23-.09.34-.2.68-.31,1.03-.18.63-.35,1.29-.52,1.95-.08.34-.05.71-.12,1.06-.05.2-.14.38.11.6.28-.29.57-.53.82-.82.66-.77,1.29-1.56,1.94-2.34.15-.19.22-.37.08-.63Zm-3.57,2.14c.17-.85.35-1.68.56-2.51-.51.79-.45,1.67-.56,2.51Zm0,0c.17-.85.35-1.68.56-2.51-.51.79-.45,1.67-.56,2.51Zm3.57-2.14c-.34-.6-.91-.85-1.51-1.09-.2-.08-.38-.02-.48.23-.09.34-.2.68-.31,1.03-.18.63-.35,1.29-.52,1.95-.08.34-.05.71-.12,1.06-.05.2-.14.38.11.6.28-.29.57-.53.82-.82.66-.77,1.29-1.56,1.94-2.34.15-.19.22-.37.08-.63Zm6.36-.03c-.07.11-.13.23-.2.34.02.07.01.15-.04.24-.29.51-.42,1.06-.28,1.62,0,0,0,.01,0,.02.04-.11.09-.23.13-.34.01,0,.05,0,.09.03-.03-.09-.09-.14-.09-.2.08-.29.15-.57.28-.85q.24-.62.11-.86Zm0,0c-.07.11-.13.23-.2.34.02.07.01.15-.04.24-.29.51-.42,1.06-.28,1.62,0,0,0,.01,0,.02.04-.11.09-.23.13-.34.01,0,.05,0,.09.03-.03-.09-.09-.14-.09-.2.08-.29.15-.57.28-.85q.24-.62.11-.86Zm-6.36.03c-.34-.6-.91-.85-1.51-1.09-.2-.08-.38-.02-.48.23-.09.34-.2.68-.31,1.03-.18.63-.35,1.29-.52,1.95-.08.34-.05.71-.12,1.06-.05.2-.14.38.11.6.28-.29.57-.53.82-.82.66-.77,1.29-1.56,1.94-2.34.15-.19.22-.37.08-.63Zm-3.57,2.14c.17-.85.35-1.68.56-2.51-.51.79-.45,1.67-.56,2.51Zm0,0c.17-.85.35-1.68.56-2.51-.51.79-.45,1.67-.56,2.51Zm3.57-2.14c-.34-.6-.91-.85-1.51-1.09-.2-.08-.38-.02-.48.23-.09.34-.2.68-.31,1.03-.18.63-.35,1.29-.52,1.95-.08.34-.05.71-.12,1.06-.05.2-.14.38.11.6.28-.29.57-.53.82-.82.66-.77,1.29-1.56,1.94-2.34.15-.19.22-.37.08-.63Zm6.36-.03c-.07.11-.13.23-.2.34.02.07.01.15-.04.24-.29.51-.42,1.06-.28,1.62,0,0,0,.01,0,.02.04-.11.09-.23.13-.34.01,0,.05,0,.09.03-.03-.09-.09-.14-.09-.2.08-.29.15-.57.28-.85q.24-.62.11-.86Zm0,0c-.07.11-.13.23-.2.34.02.07.01.15-.04.24-.29.51-.42,1.06-.28,1.62,0,0,0,.01,0,.02.04-.11.09-.23.13-.34.01,0,.05,0,.09.03-.03-.09-.09-.14-.09-.2.08-.29.15-.57.28-.85q.24-.62.11-.86Zm-6.36.03c-.34-.6-.91-.85-1.51-1.09-.2-.08-.38-.02-.48.23-.09.34-.2.68-.31,1.03-.18.63-.35,1.29-.52,1.95-.08.34-.05.71-.12,1.06-.05.2-.14.38.11.6.28-.29.57-.53.82-.82.66-.77,1.29-1.56,1.94-2.34.15-.19.22-.37.08-.63Zm-3.57,2.14c.17-.85.35-1.68.56-2.51-.51.79-.45,1.67-.56,2.51Z"/>
    <path class="cls-2" d="m30.1,6.1c-3.13-3.73-7.82-6.1-13.06-6.1S7.11,2.37,3.98,6.1C1.5,9.06,0,12.88,0,17.04s1.44,7.83,3.83,10.77c3.13,3.83,7.88,6.27,13.21,6.27s10.08-2.44,13.21-6.27c2.4-2.94,3.83-6.68,3.83-10.77s-1.5-7.99-3.98-10.95Zm-4.75,9.39c-.51.17-.29.69-.55,1,.29.15-.05.25-.09.34-.03.17-.03.32.05.38v.39s-.01,0-.02.01c.09.08.2.12.26.25.03.03.06.17.01.2-.29.37-.15.83-.32,1.18-.21.42-.12.88-.32,1.32-.2.38-.15.89-.25,1.31-.03.18-.11.37-.17.54-.04.09-.17.14-.26.21-.05-.09-.09-.2-.11-.28-.02-.12.02-.2.02-.31h-.12c-.02.22-.03.46-.03.73,0-.02-.08.06-.11.09-.49-.52-.92-1.05-.92-1.85.02-.71.06-1.42.18-2.13.06-.45.16-.89.27-1.32-.08,0-.16,0-.24,0-.62,0-.46.09-1.11.14-.06.01-.2.12-.2.18-.03.8-.37,1.43-.89,2.02-.65.74-1.42,1.56-2.5.96-.21-.05-.4-.19-.6-.28-.56-.21-.72-.73-.86-1.25-.04.1-.07.19-.08.28-.11.71-.62,1.2-.91,1.8-.2.43-.4.88-.62,1.32,0,.03-.02.08-.06.11-.38.35-.56.8-.8,1.23-.2.38-.45.77-.73,1.14-.14.17-.2.45-.49.54-.09.05-.18.09-.28.14-.06.02-.18.03-.2.09-.08.14-.17.12-.32.12-.09-.02-.19.01-.29.01.03-.01.05-.08.11-.15-.12.08-.23.12-.31.15-.11-.08-.23-.32-.32.03-.09-.03-.2-.06-.37-.14.51,0,.65-.31.89-.52-.15-.05-.38-.09-.42-.17-.03-.11.11-.25.17-.35.02.02.05.02.08.02-.06.09-.11.21-.15.31.4,0,.6-.09.85-.45.23-.31.52-.57.74-.89.4-.56.74-1.12,1.09-1.71.09-.12.18-.26.24-.42-.06.03-.11.08-.15.08h-.03c.89-1.5,1.8-2.98,2.68-4.45-.04-.14-.18-.23-.24-.36-.34-.59.15-1.57.85-1.65,1.22-.14,2.25.2,3.03,1.16.06.09.17.12.22.2.14.42.43.38.8.35.79-.05.77-.09,1.56-.12h0c.04-.14.08-.28.12-.42.11-.45.26-.88.42-1.34-.37-.05-.71-.11-1.03-.15-.28-.03-.35.11-.31.4.01.08,0,.17,0,.31-.57-.59-1.09-1.16-1.64-1.71.05-.08.11-.2.2-.32.05.01.11.06.22.09.03-.09.05-.2.06-.32.88.11,1.82-.26,2.73-.09,0,0,.03-.05.05-.11.18-.96.68-1.82.97-2.74.06-.17.18-.32.25-.52.12-.35.23-.71.34-1.06.06-.25.23-.42.37-.59.38-.56.62-.34.94-.11.19.17.46.28.7.4.03.02.04.05.06.06.12.46.23.91.02,1.4-.19.46-.34.92-.54,1.37-.14.38-.31.75-.51,1.15-.05.11-.08.21-.14.32.86.17,1.76.32,2.62.49.14.02.28.06.38.12.09.03.18.17.15.21-.06.14-.17.32-.26.34-.4.09-.83.11-1.25.2-.65.14-1.29.24-1.96.46-.29.08-.71.08-.79.63.08-.01.12-.04.18-.04Zm-14.65,10.04c-.04.09-.09.18-.21.35-.15-.15-.38-.28-.46-.49-.26-.49-.49-1-.37-1.6.05-.23-.05-.51,0-.74.08-.49.22-.97.32-1.45.18-.71.37-1.42.54-2.11-.01-.02-.05-.03-.08-.03-.29.59-.6,1.2-.91,1.8-.09.08-.23.11-.29.19-.57.69-2.22.71-2.76.29-.82-.6-1.22-1.23-.99-2.33.32-1.5.99-2.87,1.68-4.21.2-.4.56-.32.89-.4.29-.06.6-.12.91-.15.75-.08,1.49-.08,2.12.43.32.28.37.26.53-.14.63-1.67,1.26-3.33,1.89-4.96.15-.38.29-.76.46-1.11.2.06.42.23.6-.04.01-.05.18,0,.26.01.35.09.66.18.99.28.2.08.26.28.2.48-.17.52-.34,1.06-.53,1.6-.06.12-.12.24-.18.4-.08.23-.12.46-.22.66-.11.29-.21.57-.32.85-.11.31-.15.6-.23.89-.08.23-.15.43-.23.68-.14.45-.29.93-.43,1.39-.03.12-.05.27-.11.35-.24.23-.24.51-.21.85-.14-.03-.25-.08-.4-.12-.03.03-.11.09-.21.17.06,0,.09,0,.11.01-.02.15,0,.29-.06.42-.06.11-.17.15-.31.18,0,.11-.03.23-.03.34.48.14.37-.46.74-.49-.25.42-.51.8-.69,1.12-.02.17.02.29-.03.34-.2.32-.4.63-.6.96-.03.06,0,.15-.05.2-.15.22-.29.46-.46.68-.14.18-.45.28-.38.62.22.08.4.03.49-.15.12-.17.17-.35.26-.52.05.01.09.03.12.05-.12.21-.25.46-.32.65-.22.06-.42.12-.59.23-.05.05,0,.21.06.37.09-.14.19-.26.28-.39.03.02.08.05.09.06-.12.17-.23.32-.34.49-.06.06-.11.15-.11.22-.01.26.02.48.02.72,0,.06-.03.14-.06.17-.26.2-.29.43-.11.71.05.12,0,.31,0,.45-.01,0-.05-.02-.09-.03-.05.06-.11.14-.24.23h0s-.1,0-.23-.03c.12.24.21.43.29.62Z"/>
  </g>
</svg>