<?xml version="1.0" encoding="UTF-8"?>
<svg id="_Слой_1" data-name="Слой 1" xmlns="http://www.w3.org/2000/svg" viewBox="0 0 151.87 31.1">
  <defs>
    <style>
      .cls-1 {
        fill: #7e07a9;
      }
    </style>
  </defs>
  <g>
    <path class="cls-1" d="m47.97,30.12h-8.8V1.75h20.34v8.12h-11.54v7.6h9.73v6.43h-9.73v6.21Z"/>
    <path class="cls-1" d="m77.98,1.35c2.06,0,3.98.39,5.77,1.17,1.79.78,3.35,1.84,4.7,3.18,1.34,1.34,2.41,2.91,3.18,4.7.78,1.79,1.17,3.71,1.17,5.77s-.39,3.98-1.17,5.77c-.78,1.79-1.84,3.36-3.18,4.7-1.34,1.34-2.91,2.41-4.7,3.18-1.79.78-3.71,1.17-5.77,1.17s-3.98-.39-5.77-1.17c-1.79-.78-3.35-1.84-4.7-3.18-1.34-1.34-2.41-2.91-3.18-4.7-.78-1.79-1.17-3.71-1.17-5.77s.39-3.98,1.17-5.77c.78-1.79,1.84-3.35,3.18-4.7,1.34-1.34,2.91-2.41,4.7-3.18,1.79-.78,3.71-1.17,5.77-1.17Zm0,21.07c.87,0,1.69-.17,2.43-.5.75-.33,1.4-.78,1.97-1.35.57-.57,1.02-1.22,1.35-1.97.33-.75.5-1.56.5-2.43s-.17-1.69-.5-2.43c-.33-.75-.78-1.4-1.35-1.97-.57-.57-1.22-1.02-1.97-1.35-.75-.33-1.56-.5-2.43-.5s-1.69.17-2.43.5c-.75.33-1.4.78-1.95,1.35-.55.57-1,1.22-1.33,1.97-.33.75-.5,1.56-.5,2.43s.17,1.69.5,2.43c.33.75.78,1.4,1.33,1.97.55.57,1.2,1.02,1.95,1.35.75.33,1.56.5,2.43.5Z"/>
    <path class="cls-1" d="m110.38,1.35c2.06,0,3.98.39,5.77,1.17,1.79.78,3.35,1.84,4.7,3.18,1.34,1.34,2.41,2.91,3.18,4.7.78,1.79,1.17,3.71,1.17,5.77s-.39,3.98-1.17,5.77c-.78,1.79-1.84,3.36-3.18,4.7-1.34,1.34-2.91,2.41-4.7,3.18-1.79.78-3.71,1.17-5.77,1.17s-3.98-.39-5.77-1.17c-1.79-.78-3.35-1.84-4.7-3.18-1.34-1.34-2.41-2.91-3.18-4.7-.78-1.79-1.17-3.71-1.17-5.77s.39-3.98,1.17-5.77c.78-1.79,1.84-3.35,3.18-4.7s2.91-2.41,4.7-3.18c1.79-.78,3.71-1.17,5.77-1.17Zm0,21.07c.87,0,1.69-.17,2.43-.5.75-.33,1.4-.78,1.97-1.35.57-.57,1.02-1.22,1.35-1.97.33-.75.5-1.56.5-2.43s-.17-1.69-.5-2.43c-.33-.75-.79-1.4-1.35-1.97-.57-.57-1.22-1.02-1.97-1.35-.75-.33-1.56-.5-2.43-.5s-1.69.17-2.43.5c-.75.33-1.4.78-1.95,1.35s-1,1.22-1.33,1.97c-.33.75-.5,1.56-.5,2.43s.17,1.69.5,2.43c.33.75.78,1.4,1.33,1.97s1.2,1.02,1.95,1.35c.75.33,1.56.5,2.43.5Z"/>
    <path class="cls-1" d="m137.49,1.75c.36,0,.96.02,1.8.06.84.04,1.8.19,2.87.45,1.07.26,2.17.69,3.3,1.26,1.13.58,2.17,1.4,3.13,2.45.95,1.05,1.73,2.39,2.33,4,.6,1.62.92,3.61.95,5.99,0,1.76-.16,3.32-.49,4.66-.33,1.34-.77,2.51-1.32,3.5-.55.99-1.19,1.83-1.9,2.51-.71.68-1.44,1.25-2.17,1.7-1.74,1.06-3.72,1.65-5.96,1.78h-12.29l-.08-28.37h9.84Zm1.25,19.63c.85-.05,1.61-.28,2.3-.69.58-.37,1.1-.93,1.56-1.67.46-.74.68-1.8.66-3.19-.03-1.3-.23-2.3-.62-3.01s-.8-1.24-1.25-1.58c-.53-.4-1.12-.64-1.78-.71l-3.2.04.12,10.83h2.22Z"/>
  </g>
  <path class="cls-1" d="m30.8,9.5c-.82-1.88-1.93-3.52-3.34-4.93-1.41-1.41-3.05-2.53-4.93-3.34-1.88-.82-3.9-1.23-6.05-1.23s-4.18.41-6.05,1.23c-1.88.82-3.52,1.93-4.93,3.34-1.41,1.41-2.52,3.05-3.34,4.93-.26.6-.48,1.22-.66,1.85h10.02c.12-.14.24-.28.37-.41.58-.59,1.26-1.06,2.05-1.42.78-.35,1.63-.53,2.55-.53s1.77.18,2.55.53c.78.35,1.47.82,2.06,1.42.13.13.26.27.38.41h9.99c-.18-.63-.4-1.25-.66-1.85Zm-9.34,10.27c-.12.14-.24.27-.37.4-.59.59-1.28,1.06-2.06,1.42-.78.35-1.63.53-2.55.53s-1.77-.18-2.55-.53c-.78-.35-1.47-.82-2.05-1.42-.12-.13-.24-.26-.36-.4H1.5c.18.63.39,1.24.65,1.83.82,1.88,1.93,3.52,3.34,4.93,1.41,1.41,3.05,2.53,4.93,3.34,1.88.82,3.89,1.23,6.05,1.23s4.18-.41,6.05-1.23c1.88-.82,3.52-1.93,4.93-3.34,1.41-1.41,2.52-3.05,3.34-4.93.26-.6.48-1.21.65-1.83h-10Z"/>
  <g>
    <path class="cls-1" d="m13.61,19.53s-.03,0-.1-.01c.06.11.1.19.13.28-.02.04-.04.08-.1.16-.07-.07-.17-.12-.21-.22-.12-.22-.22-.45-.17-.72.02-.1-.02-.23,0-.33.03-.22.1-.43.14-.65.08-.32.17-.63.24-.94,0,0-.02-.01-.03-.01-.13.26-.27.54-.41.81-.04.03-.1.05-.13.08-.26.31-.99.32-1.23.13-.37-.27-.54-.55-.44-1.04.14-.67.44-1.28.75-1.88.09-.18.25-.14.4-.18.13-.03.27-.05.41-.07.34-.03.67-.03.95.19.14.12.17.12.23-.06.28-.74.56-1.49.85-2.22.07-.17.13-.34.21-.5.09.03.19.1.27-.02,0-.02.08,0,.12,0,.16.04.3.08.44.12.09.03.12.12.09.21-.08.23-.15.48-.23.72-.03.06-.05.11-.08.18-.03.1-.05.21-.1.3-.05.13-.1.25-.14.38-.05.14-.07.27-.1.4-.03.1-.07.19-.1.3-.06.2-.13.41-.19.62-.01.06-.02.12-.05.16-.11.1-.11.23-.1.38-.06-.01-.11-.03-.18-.06-.01.01-.05.04-.1.08.03,0,.05,0,.05,0,0,.07,0,.13-.03.19-.03.05-.08.07-.14.08,0,.05-.01.1-.01.15.21.06.17-.21.33-.22-.11.19-.23.36-.31.5,0,.08,0,.13-.01.15-.09.14-.18.28-.27.43-.01.03,0,.07-.02.09-.07.1-.13.21-.21.3-.06.08-.2.12-.17.28.1.03.18.01.22-.07.06-.08.08-.16.12-.23.02,0,.04.01.06.02-.06.1-.11.21-.14.29-.1.03-.19.06-.26.1-.02.02,0,.1.03.17.04-.06.08-.12.12-.17.01,0,.03.02.04.03-.06.08-.1.14-.15.22-.03.03-.05.07-.05.1,0,.12,0,.21,0,.32,0,.03-.01.06-.03.08-.12.09-.13.19-.05.32.02.06,0,.14,0,.2,0,0-.02,0-.04-.01-.02.03-.05.06-.11.1Zm-1.36-3.65c-.23.35-.2.74-.25,1.12.08-.38.16-.75.25-1.12Zm.45,1.5c.3-.34.58-.7.87-1.05.07-.08.1-.17.03-.28-.15-.27-.41-.38-.68-.49-.09-.03-.17,0-.21.1-.04.15-.09.3-.14.46-.08.28-.16.58-.23.88-.03.15-.02.32-.05.48-.02.09-.06.17.05.27.12-.13.26-.23.37-.37Zm1.23,2.32c.18,0,.27-.04.38-.2.1-.14.23-.26.33-.4.18-.25.33-.5.49-.76.04-.05.08-.12.11-.19-.03.01-.05.03-.07.03h-.01c.43-.72.87-1.43,1.29-2.14q.06.11-.05.39c-.06.12-.09.25-.12.38,0,.03.03.05.04.09-.03-.01-.06-.01-.04-.01-.03.09-.08.19-.1.28-.05.32-.28.54-.41.81-.09.19-.18.39-.28.59,0,.01,0,.03-.03.05-.17.16-.25.36-.36.55-.09.17-.2.34-.32.51-.06.08-.09.2-.22.24-.04.02-.08.04-.12.06-.03,0-.08.01-.09.04-.03.06-.08.06-.14.06-.04,0-.08,0-.13,0,.01,0,.02-.03.05-.07-.06.03-.1.05-.14.07-.05-.03-.1-.14-.14.01-.04-.01-.09-.03-.17-.06.23,0,.29-.14.4-.23-.07-.02-.17-.04-.19-.08-.01-.05.05-.11.08-.16,0,0,.02,0,.03,0-.03.04-.05.1-.07.14Z"/>
    <path class="cls-1" d="m16.6,17.58c-.25-.1-.32-.33-.39-.57-.06-.25,0-.5.12-.72.08-.13-.05-.19-.09-.27-.15-.26.07-.7.38-.74.54-.06,1.01.09,1.36.52.03.04.08.06.1.09.06.19.19.17.36.16.35-.02.34-.04.7-.06.08,0,.16.03.24.06,0,.03,0,.04,0,.05-.1.17-.24.12-.4.13-.28,0-.21.04-.5.06-.03,0-.09.05-.09.08-.01.36-.17.64-.4.9-.29.33-.63.7-1.12.43-.1-.02-.18-.08-.27-.12Zm.51-1.45h.4c-.19-.19-.3-.42-.59-.45.28.06.26.25.19.45Zm.14.32c-.23.01-.28.04-.3.26,0,.04-.01.08,0,.12.01.15-.06.32.09.45.39-.13.63-.45.61-.83h-.4Z"/>
    <path class="cls-1" d="m19.92,16.25s.09.06.12.11c.01.01.03.08,0,.09-.13.17-.07.37-.14.53-.1.19-.05.39-.14.59-.09.17-.07.4-.11.59-.01.08-.05.17-.08.24-.02.04-.08.06-.12.1-.02-.04-.04-.09-.05-.12,0-.06,0-.09,0-.14h-.05c0,.1-.01.21-.01.32,0,0-.03.03-.05.04-.22-.23-.41-.47-.41-.83,0-.32.03-.63.08-.95.05-.35.14-.68.23-1.01.05-.2.12-.39.19-.6-.17-.02-.32-.05-.46-.07-.12-.01-.16.05-.14.18,0,.03,0,.08,0,.14-.26-.26-.49-.52-.73-.76.02-.03.05-.09.09-.14.02,0,.05.03.1.04.01-.04.02-.09.03-.14.39.05.81-.12,1.22-.04,0,0,.01-.02.02-.05.08-.43.3-.81.43-1.23.03-.08.08-.14.11-.23.06-.16.1-.32.15-.48.03-.11.1-.19.17-.26.17-.25.28-.15.42-.05.08.08.21.12.31.18.01,0,.02.02.03.03.05.21.1.41,0,.63-.08.21-.15.41-.24.61-.06.17-.14.34-.23.52-.02.05-.03.1-.06.14.39.08.79.14,1.17.22.06,0,.12.03.17.06.04.01.08.08.07.1-.03.06-.08.14-.12.15-.18.04-.37.05-.56.09-.29.06-.58.11-.88.21-.13.03-.32.03-.35.28.03,0,.06-.02.08-.02-.23.08-.13.31-.25.45.13.07-.02.11-.04.15-.01.08-.01.14.02.17v.18h0Zm.09-.12c.05-.07.1-.13.14-.17.04.12.01.18-.14.23-.03,0-.05.03-.09.06h0s.05-.08.08-.12Z"/>
  </g>
  <path class="cls-1" d="m9.82,15.56c0,1.03.23,2,.65,2.87C.07,18.16,0,17.15,0,15.78s.07-2.66,10.43-3.01c-.39.85-.61,1.79-.61,2.79Z"/>
  <path class="cls-1" d="m33.54,15.78c0,1.4-.08,2.42-11.08,2.66.42-.87.66-1.85.66-2.88s-.22-1.96-.62-2.81c10.97.32,11.04,1.63,11.04,3.03Z"/>
</svg>