<?xml version="1.0" encoding="UTF-8"?>
<svg id="_Слой_1" data-name="Слой 1" xmlns="http://www.w3.org/2000/svg" viewBox="0 0 167.88 46.78">
  <defs>
    <style>
      .cls-1 {
        fill: #fff;
      }

      .cls-2 {
        fill: #7e07a9;
      }
    </style>
  </defs>
  <rect class="cls-2" width="167.88" height="46.78" rx="9.03" ry="9.03"/>
  <g>
    <path class="cls-1" d="m53.64,35.71h-8.8V7.34h20.34v8.12h-11.54v7.6h9.73v6.43h-9.73v6.21Z"/>
    <path class="cls-1" d="m83.65,6.94c2.06,0,3.98.39,5.77,1.17s3.35,1.84,4.7,3.18c1.34,1.34,2.41,2.91,3.18,4.7.78,1.79,1.17,3.71,1.17,5.77s-.39,3.98-1.17,5.77c-.78,1.79-1.84,3.35-3.18,4.7-1.34,1.34-2.91,2.41-4.7,3.18s-3.71,1.17-5.77,1.17-3.98-.39-5.77-1.17-3.35-1.84-4.7-3.18c-1.34-1.34-2.41-2.91-3.18-4.7-.78-1.79-1.17-3.71-1.17-5.77s.39-3.98,1.17-5.77c.78-1.79,1.84-3.35,3.18-4.7,1.34-1.34,2.91-2.41,4.7-3.18s3.71-1.17,5.77-1.17Zm0,21.07c.87,0,1.69-.17,2.43-.5.75-.33,1.4-.78,1.97-1.35s1.02-1.22,1.35-1.97c.33-.75.5-1.56.5-2.43s-.17-1.69-.5-2.43c-.33-.75-.79-1.4-1.35-1.97-.57-.57-1.22-1.02-1.97-1.35-.75-.33-1.56-.5-2.43-.5s-1.69.17-2.43.5c-.75.33-1.4.79-1.95,1.35-.55.57-1,1.22-1.33,1.97-.33.75-.5,1.56-.5,2.43s.17,1.69.5,2.43c.33.75.78,1.4,1.33,1.97.55.57,1.2,1.02,1.95,1.35.75.33,1.56.5,2.43.5Z"/>
    <path class="cls-1" d="m116.06,6.94c2.06,0,3.98.39,5.77,1.17,1.79.78,3.35,1.84,4.7,3.18,1.34,1.34,2.41,2.91,3.18,4.7.78,1.79,1.17,3.71,1.17,5.77s-.39,3.98-1.17,5.77c-.78,1.79-1.84,3.35-3.18,4.7s-2.91,2.41-4.7,3.18c-1.79.78-3.71,1.17-5.77,1.17s-3.98-.39-5.77-1.17c-1.79-.78-3.36-1.84-4.7-3.18-1.34-1.34-2.41-2.91-3.18-4.7s-1.17-3.71-1.17-5.77.39-3.98,1.17-5.77,1.84-3.35,3.18-4.7,2.91-2.41,4.7-3.18c1.79-.78,3.71-1.17,5.77-1.17Zm0,21.07c.87,0,1.69-.17,2.43-.5.75-.33,1.4-.78,1.97-1.35.57-.57,1.02-1.22,1.35-1.97.33-.75.5-1.56.5-2.43s-.17-1.69-.5-2.43c-.33-.75-.78-1.4-1.35-1.97-.57-.57-1.22-1.02-1.97-1.35-.75-.33-1.56-.5-2.43-.5s-1.69.17-2.43.5c-.75.33-1.4.79-1.95,1.35-.55.57-1,1.22-1.33,1.97-.33.75-.5,1.56-.5,2.43s.17,1.69.5,2.43c.33.75.78,1.4,1.33,1.97.55.57,1.2,1.02,1.95,1.35.75.33,1.56.5,2.43.5Z"/>
    <path class="cls-1" d="m143.17,7.34c.36,0,.96.02,1.8.06.84.04,1.8.19,2.87.45,1.07.26,2.17.69,3.3,1.26s2.17,1.4,3.13,2.45c.95,1.06,1.73,2.39,2.34,4,.6,1.61.92,3.61.95,5.99,0,1.76-.16,3.32-.49,4.66-.33,1.34-.77,2.51-1.32,3.5s-1.19,1.83-1.9,2.51c-.71.68-1.44,1.25-2.17,1.7-1.74,1.05-3.72,1.65-5.96,1.78h-12.29l-.08-28.37h9.84Zm1.25,19.63c.85-.05,1.61-.28,2.3-.69.58-.37,1.1-.93,1.56-1.67.46-.74.68-1.8.66-3.19-.03-1.3-.23-2.3-.62-3.01-.39-.71-.8-1.24-1.25-1.58-.53-.4-1.12-.64-1.78-.71l-3.2.04.12,10.83h2.22Z"/>
  </g>
  <path class="cls-1" d="m23.12,6.52c2.19,0,4.23.41,6.13,1.24,1.9.83,3.57,1.96,4.99,3.38,1.43,1.43,2.56,3.09,3.38,4.99.83,1.9,1.24,3.95,1.24,6.13s-.41,4.23-1.24,6.13c-.83,1.9-1.96,3.57-3.38,4.99-1.43,1.43-3.09,2.56-4.99,3.38-1.9.83-3.95,1.24-6.13,1.24s-4.23-.41-6.13-1.24c-1.9-.83-3.57-1.96-4.99-3.38-1.43-1.43-2.56-3.09-3.38-4.99-.83-1.9-1.24-3.94-1.24-6.13s.41-4.23,1.24-6.13c.83-1.9,1.96-3.57,3.38-4.99s3.09-2.56,4.99-3.38c1.9-.83,3.94-1.24,6.13-1.24Zm0,22.4c.93,0,1.79-.18,2.58-.53.79-.36,1.49-.83,2.09-1.44.6-.6,1.08-1.3,1.44-2.09.36-.79.53-1.65.53-2.58s-.18-1.79-.53-2.58c-.36-.79-.83-1.49-1.44-2.09-.6-.6-1.3-1.08-2.09-1.44-.79-.36-1.65-.53-2.58-.53s-1.79.18-2.58.53c-.79.36-1.48.83-2.07,1.44-.59.6-1.06,1.3-1.42,2.09-.36.79-.53,1.65-.53,2.58s.18,1.79.53,2.58c.36.79.83,1.49,1.42,2.09.59.6,1.28,1.08,2.07,1.44.79.36,1.65.53,2.58.53Z"/>
  <rect class="cls-2" x="5.82" y="18.01" width="34.59" height="8.53"/>
  <g>
    <path class="cls-1" d="m20.22,26.3s-.03,0-.1-.01c.06.11.1.2.13.28-.02.04-.04.08-.1.16-.07-.07-.17-.13-.21-.22-.12-.22-.22-.45-.17-.73.02-.1-.02-.23,0-.34.03-.22.1-.44.15-.66.08-.32.17-.64.24-.96,0,0-.02-.01-.03-.01-.13.27-.27.54-.41.82-.04.03-.1.05-.13.08-.26.31-1.01.32-1.25.13-.37-.27-.55-.56-.45-1.05.15-.68.45-1.3.76-1.91.09-.18.25-.15.4-.18.13-.03.27-.06.41-.07.34-.03.68-.03.96.2.15.13.17.12.24-.06.29-.75.57-1.51.86-2.25.07-.17.13-.34.21-.5.09.03.19.1.27-.02,0-.02.08,0,.12,0,.16.04.3.08.45.13.09.03.12.13.09.22-.08.24-.15.48-.24.73-.03.06-.06.11-.08.18-.03.1-.06.21-.1.3-.05.13-.1.26-.15.38-.05.14-.07.27-.1.4-.03.1-.07.2-.1.31-.06.2-.13.42-.2.63-.01.06-.02.13-.05.16-.11.1-.11.23-.1.38-.06-.01-.11-.03-.18-.06-.01.01-.05.04-.1.08.03,0,.06,0,.05,0,0,.07,0,.13-.03.19-.03.05-.08.07-.14.08,0,.05-.01.1-.01.15.22.06.17-.21.34-.22-.11.19-.23.36-.31.51,0,.08,0,.13-.01.15-.09.15-.18.29-.27.43-.01.03,0,.07-.02.09-.07.1-.13.21-.21.31-.06.08-.2.13-.17.28.1.03.18.01.22-.07.06-.08.08-.16.12-.24.02,0,.04.01.06.02-.06.1-.11.21-.15.29-.1.03-.19.06-.27.1-.02.02,0,.1.03.17.04-.06.08-.12.13-.17.01,0,.03.02.04.03-.06.08-.1.15-.15.22-.03.03-.05.07-.05.1,0,.12,0,.22,0,.33,0,.03-.01.06-.03.08-.12.09-.13.2-.05.32.02.06,0,.14,0,.2,0,0-.02,0-.04-.01-.02.03-.05.06-.11.1Zm-1.38-3.7c-.23.36-.2.75-.25,1.14.08-.38.16-.76.25-1.14Zm.45,1.51c.3-.35.59-.71.88-1.06.07-.08.1-.17.03-.29-.15-.27-.41-.38-.68-.5-.09-.03-.17,0-.22.1-.04.15-.09.31-.14.47-.08.29-.16.59-.24.89-.03.15-.02.32-.06.48-.02.09-.06.17.05.27.13-.13.26-.24.37-.37Zm1.25,2.35c.18,0,.27-.04.38-.2.1-.14.24-.26.34-.4.18-.25.33-.51.5-.77.04-.06.08-.12.11-.19-.03.01-.05.03-.07.03h-.01c.43-.73.88-1.45,1.31-2.17q.06.11-.05.39c-.06.13-.09.25-.13.38,0,.03.03.05.04.09-.03-.01-.06-.01-.04-.01-.03.09-.08.2-.1.28-.05.32-.28.54-.41.82-.09.2-.18.4-.28.6,0,.01,0,.03-.03.05-.17.16-.25.36-.36.56-.09.17-.2.35-.33.52-.06.08-.09.2-.22.24-.04.02-.08.04-.13.06-.03,0-.08.01-.09.04-.03.06-.08.06-.15.06-.04,0-.08,0-.13,0,.01,0,.02-.03.05-.07-.06.03-.1.06-.14.07-.05-.03-.1-.15-.15.01-.04-.01-.09-.03-.17-.06.23,0,.29-.14.4-.24-.07-.02-.17-.04-.19-.08-.01-.05.05-.11.08-.16,0,0,.02,0,.03,0-.03.04-.05.1-.07.14Z"/>
    <path class="cls-1" d="m23.25,24.32c-.26-.1-.33-.34-.39-.57-.06-.25,0-.5.13-.73.08-.13-.05-.19-.09-.27-.15-.27.07-.71.38-.75.55-.06,1.02.09,1.38.52.03.04.08.06.1.09.06.19.2.17.36.16.36-.02.35-.04.7-.06.08,0,.16.03.24.06,0,.03,0,.04,0,.05-.1.17-.24.13-.4.13-.28,0-.21.04-.5.06-.03,0-.09.06-.09.08-.01.36-.17.65-.4.91-.29.34-.64.71-1.13.43-.1-.02-.18-.08-.27-.13Zm.52-1.47h.4c-.19-.2-.3-.43-.59-.46.29.06.27.25.19.46Zm.15.33c-.24.01-.28.04-.3.27,0,.04-.01.08,0,.13.01.15-.06.33.09.45.39-.13.64-.46.62-.84h-.4Z"/>
    <path class="cls-1" d="m26.6,22.98s.09.06.12.11c.01.01.03.08,0,.09-.13.17-.07.38-.15.54-.1.19-.06.4-.15.6-.09.17-.07.4-.11.59-.01.08-.05.17-.08.24-.02.04-.08.06-.12.1-.02-.04-.04-.09-.05-.13,0-.06,0-.09,0-.14h-.06c0,.1-.01.21-.01.33,0,0-.03.03-.05.04-.22-.24-.42-.47-.42-.84,0-.32.03-.64.08-.96.05-.36.15-.69.24-1.03.05-.2.12-.4.19-.61-.17-.02-.32-.05-.47-.07-.13-.01-.16.05-.14.18,0,.03,0,.08,0,.14-.26-.27-.5-.52-.74-.77.02-.03.05-.09.09-.15.02,0,.05.03.1.04.01-.04.02-.09.03-.15.4.05.82-.12,1.24-.04,0,0,.01-.02.02-.05.08-.43.31-.82.44-1.24.03-.08.08-.15.11-.24.06-.16.1-.32.15-.48.03-.11.1-.19.17-.27.17-.25.28-.15.43-.05.08.08.21.13.31.18.01,0,.02.02.03.03.06.21.1.41,0,.64-.08.21-.15.42-.24.62-.06.17-.14.34-.23.52-.02.05-.03.1-.06.15.39.08.8.15,1.19.22.06,0,.13.03.17.06.04.01.08.08.07.1-.03.06-.08.15-.12.15-.18.04-.38.05-.57.09-.29.06-.59.11-.89.21-.13.03-.32.03-.36.29.03,0,.06-.02.08-.02-.23.08-.13.31-.25.45.13.07-.02.11-.04.15-.01.08-.01.15.02.17v.18h0Zm.09-.12c.05-.07.1-.13.14-.17.04.12.01.18-.14.23-.03,0-.06.04-.09.06h0s.06-.08.08-.12Z"/>
  </g>
  <path class="cls-1" d="m16.37,22.28c0,1.04.24,2.03.66,2.9-10.53-.27-10.61-1.29-10.61-2.68s.07-2.69,10.57-3.05c-.4.86-.62,1.82-.62,2.83Z"/>
  <path class="cls-1" d="m40.41,22.5c0,1.42-.08,2.45-11.22,2.7.43-.88.66-1.87.66-2.92s-.22-1.98-.63-2.85c11.11.32,11.19,1.66,11.19,3.07Z"/>
</svg>