<?xml version="1.0" encoding="UTF-8"?>
<svg id="_Слой_1" data-name="Слой 1" xmlns="http://www.w3.org/2000/svg" viewBox="0 0 151.37 34.08">
  <defs>
    <style>
      .cls-1 {
        fill: #7e07a9;
      }
    </style>
  </defs>
  <g>
    <path class="cls-1" d="m47.46,31.1h-8.8V2.73h20.34v8.12h-11.54v7.6h9.73v6.43h-9.73v6.21Z"/>
    <path class="cls-1" d="m77.47,2.33c2.06,0,3.98.39,5.77,1.17,1.79.78,3.35,1.84,4.7,3.18,1.34,1.34,2.41,2.91,3.18,4.7.78,1.79,1.17,3.71,1.17,5.77s-.39,3.98-1.17,5.77c-.78,1.79-1.84,3.36-3.18,4.7s-2.91,2.41-4.7,3.18c-1.79.78-3.71,1.17-5.77,1.17s-3.98-.39-5.77-1.17c-1.79-.78-3.35-1.84-4.7-3.18-1.34-1.34-2.41-2.91-3.18-4.7-.78-1.79-1.17-3.71-1.17-5.77s.39-3.98,1.17-5.77c.78-1.79,1.84-3.35,3.18-4.7s2.91-2.41,4.7-3.18c1.79-.78,3.71-1.17,5.77-1.17Zm0,21.07c.87,0,1.69-.17,2.43-.5.75-.33,1.4-.78,1.97-1.35.57-.57,1.02-1.22,1.35-1.97.33-.75.5-1.56.5-2.43s-.17-1.69-.5-2.43c-.33-.75-.79-1.4-1.35-1.97-.57-.57-1.22-1.02-1.97-1.35-.75-.33-1.56-.5-2.43-.5s-1.69.17-2.43.5c-.75.33-1.4.78-1.95,1.35s-1,1.22-1.33,1.97c-.33.75-.5,1.56-.5,2.43s.17,1.69.5,2.43c.33.75.78,1.4,1.33,1.97s1.2,1.02,1.95,1.35c.75.33,1.56.5,2.43.5Z"/>
    <path class="cls-1" d="m109.87,2.33c2.06,0,3.98.39,5.77,1.17,1.79.78,3.35,1.84,4.7,3.18,1.34,1.34,2.41,2.91,3.18,4.7.78,1.79,1.17,3.71,1.17,5.77s-.39,3.98-1.17,5.77c-.78,1.79-1.84,3.36-3.18,4.7-1.34,1.34-2.91,2.41-4.7,3.18-1.79.78-3.71,1.17-5.77,1.17s-3.98-.39-5.77-1.17c-1.79-.78-3.36-1.84-4.7-3.18-1.34-1.34-2.41-2.91-3.18-4.7-.78-1.79-1.17-3.71-1.17-5.77s.39-3.98,1.17-5.77c.78-1.79,1.84-3.35,3.18-4.7,1.34-1.34,2.91-2.41,4.7-3.18,1.79-.78,3.71-1.17,5.77-1.17Zm0,21.07c.87,0,1.69-.17,2.43-.5s1.4-.78,1.97-1.35,1.02-1.22,1.35-1.97.5-1.56.5-2.43-.17-1.69-.5-2.43-.78-1.4-1.35-1.97-1.22-1.02-1.97-1.35-1.56-.5-2.43-.5-1.69.17-2.43.5-1.4.78-1.95,1.35c-.55.57-1,1.22-1.33,1.97s-.5,1.56-.5,2.43.17,1.69.5,2.43.78,1.4,1.33,1.97c.55.57,1.2,1.02,1.95,1.35s1.56.5,2.43.5Z"/>
    <path class="cls-1" d="m136.99,2.73c.36,0,.96.02,1.8.06.84.04,1.8.19,2.87.45,1.07.26,2.17.69,3.3,1.26s2.17,1.4,3.13,2.45,1.73,2.39,2.34,4c.6,1.62.92,3.61.95,5.99,0,1.76-.16,3.32-.49,4.66-.33,1.34-.77,2.51-1.32,3.5-.55.99-1.19,1.83-1.9,2.51-.71.68-1.44,1.25-2.17,1.7-1.74,1.06-3.72,1.65-5.96,1.78h-12.29l-.08-28.37h9.84Zm1.25,19.63c.85-.05,1.61-.28,2.3-.69.58-.37,1.1-.93,1.56-1.67.46-.74.68-1.8.66-3.19-.03-1.3-.23-2.3-.62-3.01s-.8-1.24-1.25-1.58c-.53-.4-1.12-.64-1.78-.71l-3.2.04.12,10.83h2.22Z"/>
  </g>
  <g>
    <path class="cls-1" d="m18.47,17.35c.17-.46.21-.89-.42-1.02.65.08.89.59,1.31,1.02h-.89Z"/>
    <path class="cls-1" d="m19.69,18.08c.05.85-.51,1.57-1.37,1.86-.34-.28-.17-.66-.2-1-.02-.09,0-.18.01-.28.05-.49.14-.56.66-.59h.89Z"/>
    <path class="cls-1" d="m17,17.12c-.07.11-.13.23-.2.34.02.07.01.15-.04.24-.29.51-.42,1.06-.28,1.62,0,0,0,.01,0,.02.04-.11.09-.23.13-.34.01,0,.05,0,.09.03-.03-.09-.09-.14-.09-.2.08-.29.15-.57.28-.85q.24-.62.11-.86Zm0,0c-.07.11-.13.23-.2.34.02.07.01.15-.04.24-.29.51-.42,1.06-.28,1.62,0,0,0,.01,0,.02.04-.11.09-.23.13-.34.01,0,.05,0,.09.03-.03-.09-.09-.14-.09-.2.08-.29.15-.57.28-.85q.24-.62.11-.86Zm-9.94,2.17c.17-.85.35-1.68.56-2.51-.51.79-.45,1.67-.56,2.51Zm3.57-2.14c-.34-.6-.91-.85-1.51-1.09-.2-.08-.38-.02-.48.23-.09.34-.2.68-.31,1.03-.18.63-.35,1.29-.52,1.95-.08.34-.05.71-.12,1.06-.05.2-.14.38.11.6.28-.29.57-.53.82-.82.66-.77,1.29-1.56,1.94-2.34.15-.19.22-.37.08-.63Zm6.36-.03c-.07.11-.13.23-.2.34.02.07.01.15-.04.24-.29.51-.42,1.06-.28,1.62,0,0,0,.01,0,.02.04-.11.09-.23.13-.34.01,0,.05,0,.09.03-.03-.09-.09-.14-.09-.2.08-.29.15-.57.28-.85q.24-.62.11-.86Zm0,0c-.07.11-.13.23-.2.34.02.07.01.15-.04.24-.29.51-.42,1.06-.28,1.62,0,0,0,.01,0,.02.04-.11.09-.23.13-.34.01,0,.05,0,.09.03-.03-.09-.09-.14-.09-.2.08-.29.15-.57.28-.85q.24-.62.11-.86Zm-6.36.03c-.34-.6-.91-.85-1.51-1.09-.2-.08-.38-.02-.48.23-.09.34-.2.68-.31,1.03-.18.63-.35,1.29-.52,1.95-.08.34-.05.71-.12,1.06-.05.2-.14.38.11.6.28-.29.57-.53.82-.82.66-.77,1.29-1.56,1.94-2.34.15-.19.22-.37.08-.63Zm-3.57,2.14c.17-.85.35-1.68.56-2.51-.51.79-.45,1.67-.56,2.51Zm0,0c.17-.85.35-1.68.56-2.51-.51.79-.45,1.67-.56,2.51Zm3.57-2.14c-.34-.6-.91-.85-1.51-1.09-.2-.08-.38-.02-.48.23-.09.34-.2.68-.31,1.03-.18.63-.35,1.29-.52,1.95-.08.34-.05.71-.12,1.06-.05.2-.14.38.11.6.28-.29.57-.53.82-.82.66-.77,1.29-1.56,1.94-2.34.15-.19.22-.37.08-.63Zm6.36-.03c-.07.11-.13.23-.2.34.02.07.01.15-.04.24-.29.51-.42,1.06-.28,1.62,0,0,0,.01,0,.02.04-.11.09-.23.13-.34.01,0,.05,0,.09.03-.03-.09-.09-.14-.09-.2.08-.29.15-.57.28-.85q.24-.62.11-.86Zm0,0c-.07.11-.13.23-.2.34.02.07.01.15-.04.24-.29.51-.42,1.06-.28,1.62,0,0,0,.01,0,.02.04-.11.09-.23.13-.34.01,0,.05,0,.09.03-.03-.09-.09-.14-.09-.2.08-.29.15-.57.28-.85q.24-.62.11-.86Zm-6.36.03c-.34-.6-.91-.85-1.51-1.09-.2-.08-.38-.02-.48.23-.09.34-.2.68-.31,1.03-.18.63-.35,1.29-.52,1.95-.08.34-.05.71-.12,1.06-.05.2-.14.38.11.6.28-.29.57-.53.82-.82.66-.77,1.29-1.56,1.94-2.34.15-.19.22-.37.08-.63Zm-3.57,2.14c.17-.85.35-1.68.56-2.51-.51.79-.45,1.67-.56,2.51Zm0,0c.17-.85.35-1.68.56-2.51-.51.79-.45,1.67-.56,2.51Zm3.57-2.14c-.34-.6-.91-.85-1.51-1.09-.2-.08-.38-.02-.48.23-.09.34-.2.68-.31,1.03-.18.63-.35,1.29-.52,1.95-.08.34-.05.71-.12,1.06-.05.2-.14.38.11.6.28-.29.57-.53.82-.82.66-.77,1.29-1.56,1.94-2.34.15-.19.22-.37.08-.63Zm6.36-.03c-.07.11-.13.23-.2.34.02.07.01.15-.04.24-.29.51-.42,1.06-.28,1.62,0,0,0,.01,0,.02.04-.11.09-.23.13-.34.01,0,.05,0,.09.03-.03-.09-.09-.14-.09-.2.08-.29.15-.57.28-.85q.24-.62.11-.86Zm0,0c-.07.11-.13.23-.2.34.02.07.01.15-.04.24-.29.51-.42,1.06-.28,1.62,0,0,0,.01,0,.02.04-.11.09-.23.13-.34.01,0,.05,0,.09.03-.03-.09-.09-.14-.09-.2.08-.29.15-.57.28-.85q.24-.62.11-.86Zm-6.36.03c-.34-.6-.91-.85-1.51-1.09-.2-.08-.38-.02-.48.23-.09.34-.2.68-.31,1.03-.18.63-.35,1.29-.52,1.95-.08.34-.05.71-.12,1.06-.05.2-.14.38.11.6.28-.29.57-.53.82-.82.66-.77,1.29-1.56,1.94-2.34.15-.19.22-.37.08-.63Zm-3.57,2.14c.17-.85.35-1.68.56-2.51-.51.79-.45,1.67-.56,2.51Zm0,0c.17-.85.35-1.68.56-2.51-.51.79-.45,1.67-.56,2.51Zm3.57-2.14c-.34-.6-.91-.85-1.51-1.09-.2-.08-.38-.02-.48.23-.09.34-.2.68-.31,1.03-.18.63-.35,1.29-.52,1.95-.08.34-.05.71-.12,1.06-.05.2-.14.38.11.6.28-.29.57-.53.82-.82.66-.77,1.29-1.56,1.94-2.34.15-.19.22-.37.08-.63Zm6.36-.03c-.07.11-.13.23-.2.34.02.07.01.15-.04.24-.29.51-.42,1.06-.28,1.62,0,0,0,.01,0,.02.04-.11.09-.23.13-.34.01,0,.05,0,.09.03-.03-.09-.09-.14-.09-.2.08-.29.15-.57.28-.85q.24-.62.11-.86Zm0,0c-.07.11-.13.23-.2.34.02.07.01.15-.04.24-.29.51-.42,1.06-.28,1.62,0,0,0,.01,0,.02.04-.11.09-.23.13-.34.01,0,.05,0,.09.03-.03-.09-.09-.14-.09-.2.08-.29.15-.57.28-.85q.24-.62.11-.86Zm-6.36.03c-.34-.6-.91-.85-1.51-1.09-.2-.08-.38-.02-.48.23-.09.34-.2.68-.31,1.03-.18.63-.35,1.29-.52,1.95-.08.34-.05.71-.12,1.06-.05.2-.14.38.11.6.28-.29.57-.53.82-.82.66-.77,1.29-1.56,1.94-2.34.15-.19.22-.37.08-.63Zm-3.57,2.14c.17-.85.35-1.68.56-2.51-.51.79-.45,1.67-.56,2.51Zm0,0c.17-.85.35-1.68.56-2.51-.51.79-.45,1.67-.56,2.51Zm3.57-2.14c-.34-.6-.91-.85-1.51-1.09-.2-.08-.38-.02-.48.23-.09.34-.2.68-.31,1.03-.18.63-.35,1.29-.52,1.95-.08.34-.05.71-.12,1.06-.05.2-.14.38.11.6.28-.29.57-.53.82-.82.66-.77,1.29-1.56,1.94-2.34.15-.19.22-.37.08-.63Zm6.36-.03c-.07.11-.13.23-.2.34.02.07.01.15-.04.24-.29.51-.42,1.06-.28,1.62,0,0,0,.01,0,.02.04-.11.09-.23.13-.34.01,0,.05,0,.09.03-.03-.09-.09-.14-.09-.2.08-.29.15-.57.28-.85q.24-.62.11-.86Zm0,0c-.07.11-.13.23-.2.34.02.07.01.15-.04.24-.29.51-.42,1.06-.28,1.62,0,0,0,.01,0,.02.04-.11.09-.23.13-.34.01,0,.05,0,.09.03-.03-.09-.09-.14-.09-.2.08-.29.15-.57.28-.85q.24-.62.11-.86Zm-6.36.03c-.34-.6-.91-.85-1.51-1.09-.2-.08-.38-.02-.48.23-.09.34-.2.68-.31,1.03-.18.63-.35,1.29-.52,1.95-.08.34-.05.71-.12,1.06-.05.2-.14.38.11.6.28-.29.57-.53.82-.82.66-.77,1.29-1.56,1.94-2.34.15-.19.22-.37.08-.63Zm-3.02-.37c-.51.79-.45,1.67-.56,2.51.17-.85.35-1.68.56-2.51Zm9.38.34c-.07.11-.13.23-.2.34.02.07.01.15-.04.24-.29.51-.42,1.06-.28,1.62,0,0,0,.01,0,.02.04-.11.09-.23.13-.34.01,0,.05,0,.09.03-.03-.09-.09-.14-.09-.2.08-.29.15-.57.28-.85q.24-.62.11-.86Zm-7.87-1.06c-.2-.08-.38-.02-.48.23-.09.34-.2.68-.31,1.03-.18.63-.35,1.29-.52,1.95-.08.34-.05.71-.12,1.06-.05.2-.14.38.11.6.28-.29.57-.53.82-.82.66-.77,1.29-1.56,1.94-2.34.15-.19.22-.37.08-.63-.34-.6-.91-.85-1.51-1.09Zm-1.51.72c-.51.79-.45,1.67-.56,2.51.17-.85.35-1.68.56-2.51Zm-.56,2.51c.17-.85.35-1.68.56-2.51-.51.79-.45,1.67-.56,2.51Zm3.57-2.14c-.34-.6-.91-.85-1.51-1.09-.2-.08-.38-.02-.48.23-.09.34-.2.68-.31,1.03-.18.63-.35,1.29-.52,1.95-.08.34-.05.71-.12,1.06-.05.2-.14.38.11.6.28-.29.57-.53.82-.82.66-.77,1.29-1.56,1.94-2.34.15-.19.22-.37.08-.63Zm6.36-.03c-.07.11-.13.23-.2.34.02.07.01.15-.04.24-.29.51-.42,1.06-.28,1.62,0,0,0,.01,0,.02.04-.11.09-.23.13-.34.01,0,.05,0,.09.03-.03-.09-.09-.14-.09-.2.08-.29.15-.57.28-.85q.24-.62.11-.86Zm0,0c-.07.11-.13.23-.2.34.02.07.01.15-.04.24-.29.51-.42,1.06-.28,1.62,0,0,0,.01,0,.02.04-.11.09-.23.13-.34.01,0,.05,0,.09.03-.03-.09-.09-.14-.09-.2.08-.29.15-.57.28-.85q.24-.62.11-.86Zm-6.36.03c-.34-.6-.91-.85-1.51-1.09-.2-.08-.38-.02-.48.23-.09.34-.2.68-.31,1.03-.18.63-.35,1.29-.52,1.95-.08.34-.05.71-.12,1.06-.05.2-.14.38.11.6.28-.29.57-.53.82-.82.66-.77,1.29-1.56,1.94-2.34.15-.19.22-.37.08-.63Zm-3.57,2.14c.17-.85.35-1.68.56-2.51-.51.79-.45,1.67-.56,2.51Zm0,0c.17-.85.35-1.68.56-2.51-.51.79-.45,1.67-.56,2.51Zm3.57-2.14c-.34-.6-.91-.85-1.51-1.09-.2-.08-.38-.02-.48.23-.09.34-.2.68-.31,1.03-.18.63-.35,1.29-.52,1.95-.08.34-.05.71-.12,1.06-.05.2-.14.38.11.6.28-.29.57-.53.82-.82.66-.77,1.29-1.56,1.94-2.34.15-.19.22-.37.08-.63Zm6.36-.03c-.07.11-.13.23-.2.34.02.07.01.15-.04.24-.29.51-.42,1.06-.28,1.62,0,0,0,.01,0,.02.04-.11.09-.23.13-.34.01,0,.05,0,.09.03-.03-.09-.09-.14-.09-.2.08-.29.15-.57.28-.85q.24-.62.11-.86Zm0,0c-.07.11-.13.23-.2.34.02.07.01.15-.04.24-.29.51-.42,1.06-.28,1.62,0,0,0,.01,0,.02.04-.11.09-.23.13-.34.01,0,.05,0,.09.03-.03-.09-.09-.14-.09-.2.08-.29.15-.57.28-.85q.24-.62.11-.86Zm-6.36.03c-.34-.6-.91-.85-1.51-1.09-.2-.08-.38-.02-.48.23-.09.34-.2.68-.31,1.03-.18.63-.35,1.29-.52,1.95-.08.34-.05.71-.12,1.06-.05.2-.14.38.11.6.28-.29.57-.53.82-.82.66-.77,1.29-1.56,1.94-2.34.15-.19.22-.37.08-.63Zm-3.57,2.14c.17-.85.35-1.68.56-2.51-.51.79-.45,1.67-.56,2.51Zm0,0c.17-.85.35-1.68.56-2.51-.51.79-.45,1.67-.56,2.51Zm3.57-2.14c-.34-.6-.91-.85-1.51-1.09-.2-.08-.38-.02-.48.23-.09.34-.2.68-.31,1.03-.18.63-.35,1.29-.52,1.95-.08.34-.05.71-.12,1.06-.05.2-.14.38.11.6.28-.29.57-.53.82-.82.66-.77,1.29-1.56,1.94-2.34.15-.19.22-.37.08-.63Zm6.36-.03c-.07.11-.13.23-.2.34.02.07.01.15-.04.24-.29.51-.42,1.06-.28,1.62,0,0,0,.01,0,.02.04-.11.09-.23.13-.34.01,0,.05,0,.09.03-.03-.09-.09-.14-.09-.2.08-.29.15-.57.28-.85q.24-.62.11-.86Zm0,0c-.07.11-.13.23-.2.34.02.07.01.15-.04.24-.29.51-.42,1.06-.28,1.62,0,0,0,.01,0,.02.04-.11.09-.23.13-.34.01,0,.05,0,.09.03-.03-.09-.09-.14-.09-.2.08-.29.15-.57.28-.85q.24-.62.11-.86Zm-6.36.03c-.34-.6-.91-.85-1.51-1.09-.2-.08-.38-.02-.48.23-.09.34-.2.68-.31,1.03-.18.63-.35,1.29-.52,1.95-.08.34-.05.71-.12,1.06-.05.2-.14.38.11.6.28-.29.57-.53.82-.82.66-.77,1.29-1.56,1.94-2.34.15-.19.22-.37.08-.63Zm-3.57,2.14c.17-.85.35-1.68.56-2.51-.51.79-.45,1.67-.56,2.51Zm0,0c.17-.85.35-1.68.56-2.51-.51.79-.45,1.67-.56,2.51Zm3.57-2.14c-.34-.6-.91-.85-1.51-1.09-.2-.08-.38-.02-.48.23-.09.34-.2.68-.31,1.03-.18.63-.35,1.29-.52,1.95-.08.34-.05.71-.12,1.06-.05.2-.14.38.11.6.28-.29.57-.53.82-.82.66-.77,1.29-1.56,1.94-2.34.15-.19.22-.37.08-.63Zm6.36-.03c-.07.11-.13.23-.2.34.02.07.01.15-.04.24-.29.51-.42,1.06-.28,1.62,0,0,0,.01,0,.02.04-.11.09-.23.13-.34.01,0,.05,0,.09.03-.03-.09-.09-.14-.09-.2.08-.29.15-.57.28-.85q.24-.62.11-.86Zm0,0c-.07.11-.13.23-.2.34.02.07.01.15-.04.24-.29.51-.42,1.06-.28,1.62,0,0,0,.01,0,.02.04-.11.09-.23.13-.34.01,0,.05,0,.09.03-.03-.09-.09-.14-.09-.2.08-.29.15-.57.28-.85q.24-.62.11-.86Zm-6.36.03c-.34-.6-.91-.85-1.51-1.09-.2-.08-.38-.02-.48.23-.09.34-.2.68-.31,1.03-.18.63-.35,1.29-.52,1.95-.08.34-.05.71-.12,1.06-.05.2-.14.38.11.6.28-.29.57-.53.82-.82.66-.77,1.29-1.56,1.94-2.34.15-.19.22-.37.08-.63Zm-3.57,2.14c.17-.85.35-1.68.56-2.51-.51.79-.45,1.67-.56,2.51Zm0,0c.17-.85.35-1.68.56-2.51-.51.79-.45,1.67-.56,2.51Zm3.57-2.14c-.34-.6-.91-.85-1.51-1.09-.2-.08-.38-.02-.48.23-.09.34-.2.68-.31,1.03-.18.63-.35,1.29-.52,1.95-.08.34-.05.71-.12,1.06-.05.2-.14.38.11.6.28-.29.57-.53.82-.82.66-.77,1.29-1.56,1.94-2.34.15-.19.22-.37.08-.63Zm6.36-.03c-.07.11-.13.23-.2.34.02.07.01.15-.04.24-.29.51-.42,1.06-.28,1.62,0,0,0,.01,0,.02.04-.11.09-.23.13-.34.01,0,.05,0,.09.03-.03-.09-.09-.14-.09-.2.08-.29.15-.57.28-.85q.24-.62.11-.86Zm0,0c-.07.11-.13.23-.2.34.02.07.01.15-.04.24-.29.51-.42,1.06-.28,1.62,0,0,0,.01,0,.02.04-.11.09-.23.13-.34.01,0,.05,0,.09.03-.03-.09-.09-.14-.09-.2.08-.29.15-.57.28-.85q.24-.62.11-.86Zm-6.36.03c-.34-.6-.91-.85-1.51-1.09-.2-.08-.38-.02-.48.23-.09.34-.2.68-.31,1.03-.18.63-.35,1.29-.52,1.95-.08.34-.05.71-.12,1.06-.05.2-.14.38.11.6.28-.29.57-.53.82-.82.66-.77,1.29-1.56,1.94-2.34.15-.19.22-.37.08-.63Zm-3.57,2.14c.17-.85.35-1.68.56-2.51-.51.79-.45,1.67-.56,2.51Z"/>
    <path class="cls-1" d="m30.1,6.1c-3.13-3.73-7.82-6.1-13.06-6.1S7.11,2.37,3.98,6.1C1.5,9.06,0,12.88,0,17.04s1.44,7.83,3.83,10.77c3.13,3.83,7.88,6.27,13.21,6.27s10.08-2.44,13.21-6.27c2.4-2.94,3.83-6.68,3.83-10.77s-1.5-7.99-3.98-10.95Zm-4.75,9.39c-.51.17-.29.69-.55,1,.29.15-.05.25-.09.34-.03.17-.03.32.05.38v.39s-.01,0-.02.01c.09.08.2.12.26.25.03.03.06.17.01.2-.29.37-.15.83-.32,1.18-.21.42-.12.88-.32,1.32-.2.38-.15.89-.25,1.31-.03.18-.11.37-.17.54-.04.09-.17.14-.26.21-.05-.09-.09-.2-.11-.28-.02-.12.02-.2.02-.31h-.12c-.02.22-.03.46-.03.73,0-.02-.08.06-.11.09-.49-.52-.92-1.05-.92-1.85.02-.71.06-1.42.18-2.13.06-.45.16-.89.27-1.32-.08,0-.16,0-.24,0-.62,0-.46.09-1.11.14-.06.01-.2.12-.2.18-.03.8-.37,1.43-.89,2.02-.65.74-1.42,1.56-2.5.96-.21-.05-.4-.19-.6-.28-.56-.21-.72-.73-.86-1.25-.04.1-.07.19-.08.28-.11.71-.62,1.2-.91,1.8-.2.43-.4.88-.62,1.32,0,.03-.02.08-.06.11-.38.35-.56.8-.8,1.23-.2.38-.45.77-.73,1.14-.14.17-.2.45-.49.54-.09.05-.18.09-.28.14-.06.02-.18.03-.2.09-.08.14-.17.12-.32.12-.09-.02-.19.01-.29.01.03-.01.05-.08.11-.15-.12.08-.23.12-.31.15-.11-.08-.23-.32-.32.03-.09-.03-.2-.06-.37-.14.51,0,.65-.31.89-.52-.15-.05-.38-.09-.42-.17-.03-.11.11-.25.17-.35.02.02.05.02.08.02-.06.09-.11.21-.15.31.4,0,.6-.09.85-.45.23-.31.52-.57.74-.89.4-.56.74-1.12,1.09-1.71.09-.12.18-.26.24-.42-.06.03-.11.08-.15.08h-.03c.89-1.5,1.8-2.98,2.68-4.45-.04-.14-.18-.23-.24-.36-.34-.59.15-1.57.85-1.65,1.22-.14,2.25.2,3.03,1.16.06.09.17.12.22.2.14.42.43.38.8.35.79-.05.77-.09,1.56-.12h0c.04-.14.08-.28.12-.42.11-.45.26-.88.42-1.34-.37-.05-.71-.11-1.03-.15-.28-.03-.35.11-.31.4.01.08,0,.17,0,.31-.57-.59-1.09-1.16-1.64-1.71.05-.08.11-.2.2-.32.05.01.11.06.22.09.03-.09.05-.2.06-.32.88.11,1.82-.26,2.73-.09,0,0,.03-.05.05-.11.18-.96.68-1.82.97-2.74.06-.17.18-.32.25-.52.12-.35.23-.71.34-1.06.06-.25.23-.42.37-.59.38-.56.62-.34.94-.11.19.17.46.28.7.4.03.02.04.05.06.06.12.46.23.91.02,1.4-.19.46-.34.92-.54,1.37-.14.38-.31.75-.51,1.15-.05.11-.08.21-.14.32.86.17,1.76.32,2.62.49.14.02.28.06.38.12.09.03.18.17.15.21-.06.14-.17.32-.26.34-.4.09-.83.11-1.25.2-.65.14-1.29.24-1.96.46-.29.08-.71.08-.79.63.08-.01.12-.04.18-.04Zm-14.65,10.04c-.04.09-.09.18-.21.35-.15-.15-.38-.28-.46-.49-.26-.49-.49-1-.37-1.6.05-.23-.05-.51,0-.74.08-.49.22-.97.32-1.45.18-.71.37-1.42.54-2.11-.01-.02-.05-.03-.08-.03-.29.59-.6,1.2-.91,1.8-.09.08-.23.11-.29.19-.57.69-2.22.71-2.76.29-.82-.6-1.22-1.23-.99-2.33.32-1.5.99-2.87,1.68-4.21.2-.4.56-.32.89-.4.29-.06.6-.12.91-.15.75-.08,1.49-.08,2.12.43.32.28.37.26.53-.14.63-1.67,1.26-3.33,1.89-4.96.15-.38.29-.76.46-1.11.2.06.42.23.6-.04.01-.05.18,0,.26.01.35.09.66.18.99.28.2.08.26.28.2.48-.17.52-.34,1.06-.53,1.6-.06.12-.12.24-.18.4-.08.23-.12.46-.22.66-.11.29-.21.57-.32.85-.11.31-.15.6-.23.89-.08.23-.15.43-.23.68-.14.45-.29.93-.43,1.39-.03.12-.05.27-.11.35-.24.23-.24.51-.21.85-.14-.03-.25-.08-.4-.12-.03.03-.11.09-.21.17.06,0,.09,0,.11.01-.02.15,0,.29-.06.42-.06.11-.17.15-.31.18,0,.11-.03.23-.03.34.48.14.37-.46.74-.49-.25.42-.51.8-.69,1.12-.02.17.02.29-.03.34-.2.32-.4.63-.6.96-.03.06,0,.15-.05.2-.15.22-.29.46-.46.68-.14.18-.45.28-.38.62.22.08.4.03.49-.15.12-.17.17-.35.26-.52.05.01.09.03.12.05-.12.21-.25.46-.32.65-.22.06-.42.12-.59.23-.05.05,0,.21.06.37.09-.14.19-.26.28-.39.03.02.08.05.09.06-.12.17-.23.32-.34.49-.06.06-.11.15-.11.22-.01.26.02.48.02.72,0,.06-.03.14-.06.17-.26.2-.29.43-.11.71.05.12,0,.31,0,.45-.01,0-.05-.02-.09-.03-.05.06-.11.14-.24.23h0s-.1,0-.23-.03c.12.24.21.43.29.62Z"/>
  </g>
</svg>