<?xml version="1.0" encoding="UTF-8"?>
<svg id="_Слой_1" data-name="Слой 1" xmlns="http://www.w3.org/2000/svg" viewBox="0 0 54.86 50.86">
  <defs>
    <style>
      .cls-1 {
        fill: #7e07a9;
      }
    </style>
  </defs>
  <path class="cls-1" d="m50.37,15.53c-1.34-3.07-3.16-5.75-5.46-8.06-2.31-2.31-4.99-4.13-8.06-5.46-3.07-1.33-6.37-2.01-9.9-2.01s-6.83.67-9.9,2.01c-3.07,1.33-5.76,3.15-8.06,5.46-2.31,2.31-4.13,4.99-5.46,8.06-.43.98-.79,1.99-1.08,3.02h16.38c.19-.23.4-.46.61-.67.95-.97,2.06-1.74,3.35-2.32,1.28-.57,2.67-.86,4.17-.86s2.89.29,4.17.86c1.28.58,2.4,1.35,3.38,2.32.22.22.42.44.62.67h16.34c-.29-1.03-.65-2.04-1.08-3.02Zm-15.28,16.8c-.19.22-.39.44-.6.65-.97.97-2.1,1.74-3.38,2.32-1.28.57-2.67.86-4.17.86s-2.89-.29-4.17-.86c-1.28-.58-2.4-1.35-3.35-2.32-.2-.21-.4-.42-.58-.65H2.45c.29,1.02.65,2.02,1.07,3,1.34,3.07,3.16,5.75,5.46,8.06,2.31,2.31,4.99,4.13,8.06,5.46,3.07,1.33,6.37,2.01,9.9,2.01s6.83-.67,9.9-2.01c3.07-1.33,5.75-3.15,8.06-5.46,2.31-2.31,4.13-4.99,5.46-8.06.42-.98.78-1.98,1.07-3h-16.35Z"/>
  <g>
    <path class="cls-1" d="m22.26,31.94s-.04,0-.17-.02c.09.18.16.32.21.45-.03.07-.07.13-.16.26-.11-.11-.28-.2-.34-.36-.19-.36-.36-.73-.27-1.17.03-.17-.03-.37,0-.54.06-.36.16-.71.24-1.06.14-.52.27-1.04.39-1.54-.01-.01-.03-.02-.06-.02-.21.43-.44.88-.67,1.32-.07.06-.17.08-.21.14-.42.51-1.62.52-2.02.21-.6-.44-.89-.9-.72-1.7.24-1.09.72-2.1,1.23-3.08.15-.29.41-.24.65-.29.21-.04.44-.09.67-.11.55-.06,1.09-.06,1.56.32.24.2.27.19.38-.1.46-1.22.92-2.43,1.39-3.63.11-.28.21-.55.34-.81.15.04.3.17.44-.03.01-.03.14,0,.19.01.26.07.48.14.72.2.15.06.19.2.15.35-.12.38-.25.78-.38,1.17-.04.09-.09.18-.14.29-.06.17-.09.34-.16.48-.08.21-.16.42-.24.62-.08.23-.11.44-.17.65-.06.17-.11.32-.17.5-.1.33-.21.68-.32,1.01-.02.09-.03.2-.08.26-.18.17-.18.37-.16.62-.1-.02-.18-.06-.29-.09-.02.02-.08.07-.16.12.06,0,.09.01.08.01-.01.11,0,.21-.05.3-.04.08-.12.11-.23.14,0,.08-.02.17-.02.25.35.1.27-.34.54-.36-.18.3-.37.59-.51.82-.01.12.01.21-.02.25-.15.24-.29.46-.44.7-.02.04,0,.11-.03.15-.11.16-.21.34-.34.5-.1.14-.33.2-.28.45.16.06.29.02.36-.11.09-.12.12-.26.19-.38.03.01.07.02.09.03-.09.16-.18.34-.24.47-.16.04-.3.09-.43.17-.03.03,0,.16.04.27.07-.1.14-.19.2-.28.02.01.06.03.07.04-.09.12-.17.24-.25.36-.05.04-.08.11-.08.16-.01.19.01.35.01.53,0,.04-.02.1-.04.12-.19.15-.21.32-.08.52.03.09,0,.23,0,.33-.01,0-.03-.01-.07-.02-.03.04-.08.1-.18.17Zm-2.22-5.97c-.37.57-.33,1.22-.41,1.84.12-.62.26-1.23.41-1.84Zm.73,2.45c.48-.56.95-1.14,1.42-1.71.11-.14.16-.27.06-.46-.25-.44-.67-.62-1.1-.8-.15-.06-.28-.01-.35.17-.07.25-.15.5-.23.75-.14.46-.26.95-.38,1.43-.06.25-.03.52-.09.78-.03.15-.1.28.08.44.2-.21.42-.38.6-.6Zm2.02,3.79c.29,0,.44-.07.62-.33.17-.23.38-.42.54-.65.29-.41.54-.82.8-1.25.07-.09.13-.19.18-.3-.05.02-.08.06-.11.06h-.02c.7-1.18,1.42-2.34,2.11-3.51q.1.18-.08.63c-.09.2-.15.41-.2.62,0,.05.04.08.07.15-.06-.02-.09-.02-.07-.02-.06.15-.14.32-.16.45-.08.52-.45.88-.66,1.32-.15.32-.29.64-.45.97,0,.02-.01.06-.04.08-.28.26-.41.59-.59.9-.15.28-.33.56-.53.83-.1.12-.15.33-.36.39-.07.03-.14.07-.2.1-.05.01-.14.02-.15.07-.06.1-.12.09-.24.09-.07-.01-.14.01-.21.01.02-.01.03-.06.08-.11-.09.06-.17.09-.23.11-.08-.06-.17-.24-.24.02-.07-.02-.15-.04-.27-.1.37,0,.47-.23.65-.38-.11-.03-.28-.07-.3-.12-.02-.08.08-.18.12-.26.01.01.03.01.06.01-.05.07-.08.16-.11.23Z"/>
    <path class="cls-1" d="m27.15,28.75c-.42-.16-.53-.54-.63-.92-.1-.41-.01-.81.2-1.18.12-.21-.08-.3-.15-.44-.25-.43.11-1.15.62-1.21.89-.1,1.65.15,2.22.85.04.07.12.09.16.15.1.3.32.28.59.26.57-.03.56-.07,1.14-.09.14,0,.26.06.39.09-.01.06-.01.07-.01.08-.16.28-.39.2-.65.21-.45,0-.34.07-.81.1-.05.01-.15.09-.15.14-.02.59-.27,1.05-.65,1.48-.47.54-1.04,1.14-1.83.7-.16-.03-.29-.14-.44-.2Zm.83-2.37h.65c-.3-.32-.48-.69-.96-.74.46.09.43.41.3.74Zm.24.53c-.38.02-.45.07-.48.43-.01.07-.02.14-.01.2.02.25-.1.53.15.73.63-.21,1.04-.74,1-1.36h-.65Z"/>
    <path class="cls-1" d="m32.57,26.57c.07.06.15.09.19.18.02.02.04.12.01.15-.21.27-.11.61-.24.87-.16.3-.09.64-.24.97-.15.28-.11.65-.18.96-.02.14-.08.27-.12.39-.03.07-.12.1-.19.16-.03-.07-.07-.15-.08-.2-.01-.09.01-.15.01-.23h-.09c-.01.16-.02.34-.02.53,0-.01-.06.05-.08.07-.36-.38-.68-.77-.68-1.35.01-.52.04-1.04.14-1.56.08-.58.24-1.12.38-1.66.08-.33.19-.64.3-.98-.27-.03-.52-.08-.75-.11-.2-.02-.26.08-.23.29.01.06,0,.12,0,.23-.42-.43-.8-.85-1.19-1.25.03-.06.08-.15.15-.24.03.01.08.05.16.07.02-.07.03-.15.04-.24.64.08,1.33-.19,2-.07,0,0,.02-.03.03-.08.14-.7.5-1.33.71-2.01.05-.12.14-.24.18-.38.09-.26.17-.52.25-.78.04-.18.17-.3.27-.43.28-.41.45-.25.69-.08.14.12.34.2.51.29.02.01.03.03.05.05.09.34.17.67.01,1.03-.13.34-.25.68-.39,1-.1.28-.23.55-.37.85-.03.08-.06.16-.1.24.63.12,1.28.24,1.92.36.1.01.2.04.28.09.07.02.14.12.11.16-.04.1-.12.24-.19.25-.29.07-.61.08-.91.15-.47.1-.95.18-1.43.34-.21.06-.52.06-.57.46.06-.01.09-.03.14-.03-.37.12-.21.51-.41.73.21.11-.03.18-.07.25-.02.12-.02.24.03.28v.29h-.01Zm.15-.19c.08-.11.17-.21.23-.28.07.19.02.29-.23.37-.04.01-.09.06-.15.1h.01c.06-.07.09-.14.13-.19Z"/>
  </g>
  <path class="cls-1" d="m16.06,25.45c0,1.68.38,3.27,1.06,4.69C.12,29.7,0,28.05,0,25.8s.12-4.35,17.06-4.92c-.65,1.39-1,2.93-1,4.56Z"/>
  <path class="cls-1" d="m54.86,25.8c0,2.29-.12,3.96-18.12,4.35.69-1.43,1.07-3.02,1.07-4.71s-.36-3.2-1.02-4.59c17.94.52,18.06,2.67,18.06,4.95Z"/>
</svg>