<?xml version="1.0" standalone="no"?>
<!DOCTYPE svg PUBLIC "-//W3C//DTD SVG 20010904//EN"
 "http://www.w3.org/TR/2001/REC-SVG-20010904/DTD/svg10.dtd">
<svg version="1.0" xmlns="http://www.w3.org/2000/svg"
 width="529.000000pt" height="528.000000pt" viewBox="0 0 529.000000 528.000000"
 preserveAspectRatio="xMidYMid meet">

<g transform="translate(0.000000,528.000000) scale(0.100000,-0.100000)"
fill="#000000" stroke="none">
<path d="M1655 5144 c-573 -63 -1058 -373 -1354 -866 -99 -164 -174 -368 -213
-575 -29 -157 -31 -456 -4 -608 101 -561 447 -1025 954 -1280 558 -280 1232
-238 1756 110 l100 66 983 -983 983 -983 160 160 c88 88 159 163 158 167 -2 3
-431 435 -953 960 -677 679 -955 965 -968 993 l-18 40 54 81 c340 518 380
1193 102 1746 -97 193 -195 326 -352 479 -255 249 -573 412 -923 474 -92 16
-382 28 -465 19z m445 -343 c421 -85 781 -351 985 -726 158 -291 210 -632 146
-960 -55 -287 -185 -530 -396 -740 -211 -212 -458 -343 -755 -401 -139 -27
-409 -25 -542 4 -294 64 -527 190 -733 397 -210 209 -344 459 -402 752 -26
133 -24 415 5 546 65 296 189 525 397 732 230 231 521 375 835 414 111 14 349
5 460 -18z"/>
<path d="M1505 4493 c-172 -37 -333 -125 -475 -260 -112 -106 -177 -192 -235
-308 -50 -103 -81 -204 -91 -305 l-7 -70 159 0 159 0 13 78 c40 262 292 512
557 555 l75 12 0 157 0 158 -42 -1 c-24 0 -74 -7 -113 -16z"/>
</g>
</svg>
