<?xml version="1.0" encoding="UTF-8"?>
<svg id="_Слой_1" data-name="Слой 1" xmlns="http://www.w3.org/2000/svg" viewBox="0 0 163.67 29.64">
  <defs>
    <style>
      .cls-1 {
        fill: #fff;
      }

      .cls-2 {
        fill: #7e07a9;
      }
    </style>
  </defs>
  <rect class="cls-1" x="2.96" y="1.64" width="41.7" height="27.2"/>
  <g>
    <g>
      <path class="cls-2" d="m59.77,28.77h-8.8V.41h20.34v8.12h-11.54v7.6h9.73v6.43h-9.73v6.21Z"/>
      <path class="cls-2" d="m89.77,0c2.06,0,3.98.39,5.77,1.17,1.79.78,3.35,1.84,4.7,3.18,1.34,1.34,2.41,2.91,3.18,4.7.78,1.79,1.17,3.71,1.17,5.77s-.39,3.98-1.17,5.77c-.78,1.79-1.84,3.35-3.18,4.7-1.34,1.34-2.91,2.41-4.7,3.18-1.79.78-3.71,1.17-5.77,1.17s-3.98-.39-5.77-1.17c-1.79-.78-3.36-1.84-4.7-3.18-1.34-1.34-2.41-2.91-3.18-4.7s-1.17-3.71-1.17-5.77.39-3.98,1.17-5.77c.78-1.79,1.84-3.35,3.18-4.7s2.91-2.41,4.7-3.18c1.79-.78,3.71-1.17,5.77-1.17Zm0,21.07c.87,0,1.69-.17,2.43-.5s1.4-.78,1.97-1.35c.57-.57,1.02-1.22,1.35-1.97s.5-1.56.5-2.43-.17-1.69-.5-2.43-.78-1.4-1.35-1.97c-.57-.57-1.22-1.02-1.97-1.35s-1.56-.5-2.43-.5-1.69.17-2.43.5-1.4.79-1.95,1.35c-.55.57-1,1.22-1.33,1.97s-.5,1.56-.5,2.43.17,1.69.5,2.43.78,1.4,1.33,1.97c.55.57,1.2,1.02,1.95,1.35s1.56.5,2.43.5Z"/>
      <path class="cls-2" d="m122.18,0c2.06,0,3.98.39,5.77,1.17s3.35,1.84,4.7,3.18c1.34,1.34,2.41,2.91,3.18,4.7.78,1.79,1.17,3.71,1.17,5.77s-.39,3.98-1.17,5.77c-.78,1.79-1.84,3.35-3.18,4.7-1.34,1.34-2.91,2.41-4.7,3.18-1.79.78-3.71,1.17-5.77,1.17s-3.98-.39-5.77-1.17c-1.79-.78-3.35-1.84-4.7-3.18-1.34-1.34-2.41-2.91-3.18-4.7-.78-1.79-1.17-3.71-1.17-5.77s.39-3.98,1.17-5.77c.78-1.79,1.84-3.35,3.18-4.7,1.34-1.34,2.91-2.41,4.7-3.18s3.71-1.17,5.77-1.17Zm0,21.07c.87,0,1.69-.17,2.43-.5.75-.33,1.4-.78,1.97-1.35s1.02-1.22,1.35-1.97c.33-.75.5-1.56.5-2.43s-.17-1.69-.5-2.43c-.33-.75-.79-1.4-1.35-1.97-.57-.57-1.22-1.02-1.97-1.35-.75-.33-1.56-.5-2.43-.5s-1.69.17-2.43.5c-.75.33-1.4.79-1.95,1.35-.55.57-1,1.22-1.33,1.97-.33.75-.5,1.56-.5,2.43s.17,1.69.5,2.43c.33.75.78,1.4,1.33,1.97.55.57,1.2,1.02,1.95,1.35.75.33,1.56.5,2.43.5Z"/>
      <path class="cls-2" d="m149.29.41c.36,0,.96.02,1.8.06.84.04,1.8.19,2.87.45,1.07.26,2.17.69,3.3,1.26,1.13.58,2.17,1.4,3.13,2.45.95,1.06,1.73,2.39,2.33,4,.6,1.62.92,3.61.95,5.99,0,1.76-.16,3.32-.49,4.66-.33,1.34-.77,2.51-1.32,3.5-.55.99-1.19,1.83-1.9,2.51-.71.68-1.44,1.25-2.17,1.7-1.74,1.05-3.72,1.65-5.96,1.78h-12.29l-.08-28.37h9.84Zm1.25,19.63c.85-.05,1.61-.28,2.3-.69.58-.37,1.1-.93,1.56-1.67.46-.74.68-1.8.66-3.19-.03-1.3-.23-2.3-.62-3.01-.39-.71-.8-1.24-1.25-1.58-.53-.4-1.12-.64-1.78-.71l-3.2.04.12,10.83h2.22Z"/>
    </g>
    <path class="cls-2" d="m23.48,14.82c-.09.15-.18.3-.27.45.03.09.02.19-.06.32-.39.67-.55,1.4-.37,2.13,0,0,0,.01,0,.02.05-.15.12-.3.18-.44.02,0,.07.01.12.04-.04-.12-.12-.18-.12-.26.1-.39.2-.75.37-1.12q.32-.82.14-1.14Zm0,0c-.09.15-.18.3-.27.45.03.09.02.19-.06.32-.39.67-.55,1.4-.37,2.13,0,0,0,.01,0,.02.05-.15.12-.3.18-.44.02,0,.07.01.12.04-.04-.12-.12-.18-.12-.26.1-.39.2-.75.37-1.12q.32-.82.14-1.14Zm-13.11,2.86c.22-1.12.47-2.22.73-3.31-.67,1.04-.59,2.2-.73,3.31Zm4.71-2.82c-.45-.79-1.2-1.12-1.99-1.44-.26-.1-.51-.02-.63.3-.12.45-.26.9-.41,1.36-.24.83-.47,1.7-.69,2.58-.1.45-.06.94-.16,1.4-.06.26-.18.51.14.79.37-.39.75-.69,1.08-1.08.87-1.02,1.71-2.05,2.56-3.09.2-.25.29-.49.1-.83Zm8.39-.04c-.09.15-.18.3-.27.45.03.09.02.19-.06.32-.39.67-.55,1.4-.37,2.13,0,0,0,.01,0,.02.05-.15.12-.3.18-.44.02,0,.07.01.12.04-.04-.12-.12-.18-.12-.26.1-.39.2-.75.37-1.12q.32-.82.14-1.14Zm0,0c-.09.15-.18.3-.27.45.03.09.02.19-.06.32-.39.67-.55,1.4-.37,2.13,0,0,0,.01,0,.02.05-.15.12-.3.18-.44.02,0,.07.01.12.04-.04-.12-.12-.18-.12-.26.1-.39.2-.75.37-1.12q.32-.82.14-1.14Zm-8.39.04c-.45-.79-1.2-1.12-1.99-1.44-.26-.1-.51-.02-.63.3-.12.45-.26.9-.41,1.36-.24.83-.47,1.7-.69,2.58-.1.45-.06.94-.16,1.4-.06.26-.18.51.14.79.37-.39.75-.69,1.08-1.08.87-1.02,1.71-2.05,2.56-3.09.2-.25.29-.49.1-.83Zm-4.71,2.82c.22-1.12.47-2.22.73-3.31-.67,1.04-.59,2.2-.73,3.31Zm0,0c.22-1.12.47-2.22.73-3.31-.67,1.04-.59,2.2-.73,3.31Zm4.71-2.82c-.45-.79-1.2-1.12-1.99-1.44-.26-.1-.51-.02-.63.3-.12.45-.26.9-.41,1.36-.24.83-.47,1.7-.69,2.58-.1.45-.06.94-.16,1.4-.06.26-.18.51.14.79.37-.39.75-.69,1.08-1.08.87-1.02,1.71-2.05,2.56-3.09.2-.25.29-.49.1-.83Zm8.39-.04c-.09.15-.18.3-.27.45.03.09.02.19-.06.32-.39.67-.55,1.4-.37,2.13,0,0,0,.01,0,.02.05-.15.12-.3.18-.44.02,0,.07.01.12.04-.04-.12-.12-.18-.12-.26.1-.39.2-.75.37-1.12q.32-.82.14-1.14Zm0,0c-.09.15-.18.3-.27.45.03.09.02.19-.06.32-.39.67-.55,1.4-.37,2.13,0,0,0,.01,0,.02.05-.15.12-.3.18-.44.02,0,.07.01.12.04-.04-.12-.12-.18-.12-.26.1-.39.2-.75.37-1.12q.32-.82.14-1.14Zm-8.39.04c-.45-.79-1.2-1.12-1.99-1.44-.26-.1-.51-.02-.63.3-.12.45-.26.9-.41,1.36-.24.83-.47,1.7-.69,2.58-.1.45-.06.94-.16,1.4-.06.26-.18.51.14.79.37-.39.75-.69,1.08-1.08.87-1.02,1.71-2.05,2.56-3.09.2-.25.29-.49.1-.83Zm-3.98-.49c-.67,1.04-.59,2.2-.73,3.31.22-1.12.47-2.22.73-3.31ZM0,.27v28.65h47.14V.27H0Zm14.91,26.11c-.2-.2-.51-.37-.61-.65-.35-.65-.65-1.32-.49-2.11.06-.31-.06-.67,0-.98.1-.65.29-1.28.43-1.91.24-.94.49-1.87.71-2.78-.02-.02-.06-.04-.1-.04-.38.77-.79,1.58-1.2,2.38-.12.1-.3.15-.38.25-.75.91-2.93.93-3.64.38-1.08-.79-1.61-1.62-1.3-3.07.43-1.97,1.3-3.78,2.22-5.55.26-.53.73-.43,1.18-.53.38-.08.79-.16,1.2-.2.99-.1,1.97-.1,2.8.57.43.37.49.34.69-.18.83-2.2,1.66-4.39,2.5-6.54.2-.51.38-1,.61-1.46.26.08.55.3.79-.06.02-.06.24,0,.34.02.47.12.87.24,1.3.37.26.1.34.37.26.63-.22.69-.45,1.4-.69,2.11-.08.16-.16.32-.24.53-.1.3-.16.61-.29.87-.14.39-.28.75-.42,1.12-.15.41-.2.79-.31,1.18-.1.3-.2.57-.3.89-.18.59-.38,1.22-.57,1.83-.04.16-.06.36-.15.46-.32.31-.32.67-.28,1.12-.18-.04-.33-.1-.53-.16-.04.04-.14.12-.28.22.08,0,.12.01.14.02-.02.2,0,.39-.08.55-.08.14-.22.2-.41.24,0,.14-.04.3-.04.45.63.18.49-.61.98-.65-.33.55-.67,1.06-.91,1.48-.02.22.02.38-.04.45-.26.43-.53.83-.79,1.26-.04.08,0,.2-.06.26-.2.29-.38.61-.61.9-.18.24-.59.37-.51.81.29.1.53.04.65-.2.16-.22.22-.47.35-.69.06.02.12.04.16.06-.16.28-.33.61-.43.85-.29.08-.55.16-.77.3-.06.06,0,.28.08.49.12-.18.25-.35.37-.51.04.02.1.06.12.08-.16.22-.3.43-.45.65-.08.08-.14.2-.14.29-.02.34.02.63.02.95,0,.08-.04.18-.08.22-.34.26-.38.57-.14.93.06.16,0,.41,0,.59-.02,0-.06-.02-.12-.04-.06.08-.15.18-.32.3h0s-.13,0-.3-.04c.16.32.28.57.38.81-.06.12-.12.24-.28.47Zm24.97-15.81c-.08.18-.22.43-.34.45-.53.12-1.1.14-1.65.26-.86.18-1.71.32-2.58.61-.38.1-.94.1-1.04.83.1-.02.16-.06.24-.06-.67.22-.38.91-.73,1.32.38.2-.06.33-.12.45-.04.22-.04.43.06.51v.51s-.01.01-.02.02c.12.1.26.16.35.33.04.04.08.22.02.26-.38.49-.2,1.1-.43,1.56-.28.55-.16,1.16-.42,1.75-.26.51-.2,1.18-.33,1.73-.04.24-.14.49-.22.71-.06.12-.22.18-.34.28-.06-.12-.12-.26-.14-.37-.02-.16.02-.26.02-.41h-.16c-.02.29-.04.61-.04.96,0-.02-.1.08-.15.12-.65-.69-1.22-1.38-1.22-2.44.02-.94.08-1.87.24-2.81.08-.6.21-1.17.36-1.74-.1,0-.21,0-.32,0-.81,0-.61.12-1.46.18-.08.02-.26.16-.26.24-.04,1.06-.49,1.89-1.18,2.66-.85.98-1.87,2.05-3.29,1.26-.28-.06-.53-.25-.79-.37-.74-.28-.95-.96-1.13-1.65-.05.13-.09.25-.11.37-.14.93-.81,1.58-1.2,2.38-.26.57-.53,1.16-.81,1.75,0,.04-.02.1-.08.15-.51.47-.73,1.06-1.06,1.62-.26.51-.59,1.02-.96,1.5-.18.22-.26.59-.65.71-.12.06-.24.12-.37.18-.08.02-.24.04-.26.12-.1.18-.22.16-.42.16-.12-.02-.25.02-.39.02.04-.02.06-.1.14-.2-.16.1-.3.16-.41.2-.14-.1-.3-.42-.42.04-.12-.04-.26-.08-.49-.18.67,0,.85-.41,1.18-.69-.2-.06-.51-.12-.55-.22-.04-.14.14-.33.22-.47.02.02.06.02.1.02-.08.12-.14.28-.2.41.53,0,.79-.12,1.12-.59.3-.41.69-.75.98-1.18.53-.73.98-1.48,1.44-2.26.12-.16.24-.34.32-.55-.08.04-.14.1-.2.1h-.04c1.17-1.98,2.38-3.93,3.53-5.87-.05-.18-.24-.31-.32-.47-.45-.77.2-2.07,1.12-2.18,1.61-.18,2.97.26,4,1.53.08.12.22.16.29.26.18.55.57.51,1.06.47,1.04-.06,1.02-.12,2.05-.16h.01c.05-.18.1-.37.15-.55.14-.59.34-1.16.55-1.77-.49-.06-.94-.14-1.36-.2-.37-.04-.47.14-.41.53.02.11,0,.22,0,.41-.75-.77-1.44-1.53-2.16-2.26.06-.1.15-.26.26-.42.06.02.15.08.29.12.04-.12.06-.26.08-.42,1.16.14,2.4-.35,3.6-.12,0,0,.04-.06.06-.14.24-1.26.9-2.4,1.28-3.62.08-.22.24-.43.33-.69.16-.47.3-.94.45-1.4.08-.33.3-.55.49-.77.51-.73.81-.45,1.24-.14.25.22.61.37.92.53.04.02.06.06.08.08.16.61.3,1.2.02,1.85-.25.61-.45,1.22-.71,1.81-.18.51-.41.99-.67,1.52-.06.14-.1.28-.18.43,1.14.22,2.32.42,3.46.65.18.02.37.08.51.16.12.04.24.22.2.28Zm-16.78,6.77c-.04-.12-.12-.18-.12-.26.1-.39.2-.75.37-1.12q.32-.82.14-1.14c-.09.15-.18.3-.27.45.03.09.02.19-.06.32-.39.67-.55,1.4-.37,2.13,0,0,0,.01,0,.02.05-.15.12-.3.18-.44.02,0,.07.01.12.04Zm-8.01-2.48c-.45-.79-1.2-1.12-1.99-1.44-.26-.1-.51-.02-.63.3-.12.45-.26.9-.41,1.36-.24.83-.47,1.7-.69,2.58-.1.45-.06.94-.16,1.4-.06.26-.18.51.14.79.37-.39.75-.69,1.08-1.08.87-1.02,1.71-2.05,2.56-3.09.2-.25.29-.49.1-.83Zm-3.98-.49c-.67,1.04-.59,2.2-.73,3.31.22-1.12.47-2.22.73-3.31Zm-.73,3.31c.22-1.12.47-2.22.73-3.31-.67,1.04-.59,2.2-.73,3.31Zm4.71-2.82c-.45-.79-1.2-1.12-1.99-1.44-.26-.1-.51-.02-.63.3-.12.45-.26.9-.41,1.36-.24.83-.47,1.7-.69,2.58-.1.45-.06.94-.16,1.4-.06.26-.18.51.14.79.37-.39.75-.69,1.08-1.08.87-1.02,1.71-2.05,2.56-3.09.2-.25.29-.49.1-.83Zm8.39-.04c-.09.15-.18.3-.27.45.03.09.02.19-.06.32-.39.67-.55,1.4-.37,2.13,0,0,0,.01,0,.02.05-.15.12-.3.18-.44.02,0,.07.01.12.04-.04-.12-.12-.18-.12-.26.1-.39.2-.75.37-1.12q.32-.82.14-1.14Zm0,0c-.09.15-.18.3-.27.45.03.09.02.19-.06.32-.39.67-.55,1.4-.37,2.13,0,0,0,.01,0,.02.05-.15.12-.3.18-.44.02,0,.07.01.12.04-.04-.12-.12-.18-.12-.26.1-.39.2-.75.37-1.12q.32-.82.14-1.14Zm-8.39.04c-.45-.79-1.2-1.12-1.99-1.44-.26-.1-.51-.02-.63.3-.12.45-.26.9-.41,1.36-.24.83-.47,1.7-.69,2.58-.1.45-.06.94-.16,1.4-.06.26-.18.51.14.79.37-.39.75-.69,1.08-1.08.87-1.02,1.71-2.05,2.56-3.09.2-.25.29-.49.1-.83Zm-4.71,2.82c.22-1.12.47-2.22.73-3.31-.67,1.04-.59,2.2-.73,3.31Zm0,0c.22-1.12.47-2.22.73-3.31-.67,1.04-.59,2.2-.73,3.31Zm4.71-2.82c-.45-.79-1.2-1.12-1.99-1.44-.26-.1-.51-.02-.63.3-.12.45-.26.9-.41,1.36-.24.83-.47,1.7-.69,2.58-.1.45-.06.94-.16,1.4-.06.26-.18.51.14.79.37-.39.75-.69,1.08-1.08.87-1.02,1.71-2.05,2.56-3.09.2-.25.29-.49.1-.83Zm8.39-.04c-.09.15-.18.3-.27.45.03.09.02.19-.06.32-.39.67-.55,1.4-.37,2.13,0,0,0,.01,0,.02.05-.15.12-.3.18-.44.02,0,.07.01.12.04-.04-.12-.12-.18-.12-.26.1-.39.2-.75.37-1.12q.32-.82.14-1.14Zm0,0c-.09.15-.18.3-.27.45.03.09.02.19-.06.32-.39.67-.55,1.4-.37,2.13,0,0,0,.01,0,.02.05-.15.12-.3.18-.44.02,0,.07.01.12.04-.04-.12-.12-.18-.12-.26.1-.39.2-.75.37-1.12q.32-.82.14-1.14Zm-8.39.04c-.45-.79-1.2-1.12-1.99-1.44-.26-.1-.51-.02-.63.3-.12.45-.26.9-.41,1.36-.24.83-.47,1.7-.69,2.58-.1.45-.06.94-.16,1.4-.06.26-.18.51.14.79.37-.39.75-.69,1.08-1.08.87-1.02,1.71-2.05,2.56-3.09.2-.25.29-.49.1-.83Zm-4.71,2.82c.22-1.12.47-2.22.73-3.31-.67,1.04-.59,2.2-.73,3.31Z"/>
    <path class="cls-2" d="m25.43,15.12c.22-.61.28-1.18-.55-1.34.86.1,1.18.77,1.73,1.34h-1.18Z"/>
    <path class="cls-2" d="m27.04,16.08c.06,1.12-.67,2.07-1.81,2.46-.45-.37-.22-.87-.26-1.32-.02-.12,0-.24.02-.37.06-.65.18-.73.87-.77h1.18Z"/>
  </g>
</svg>